G04 #@! TF.GenerationSoftware,KiCad,Pcbnew,5.0.2*
G04 #@! TF.CreationDate,2020-06-05T09:12:56+02:00*
G04 #@! TF.ProjectId,pmod-8leds,706d6f64-2d38-46c6-9564-732e6b696361,rev?*
G04 #@! TF.SameCoordinates,Original*
G04 #@! TF.FileFunction,Copper,L1,Top*
G04 #@! TF.FilePolarity,Positive*
%FSLAX46Y46*%
G04 Gerber Fmt 4.6, Leading zero omitted, Abs format (unit mm)*
G04 Created by KiCad (PCBNEW 5.0.2) date ven. 05 juin 2020 09:12:56 CEST*
%MOMM*%
%LPD*%
G01*
G04 APERTURE LIST*
G04 #@! TA.AperFunction,NonConductor*
%ADD10C,0.101600*%
G04 #@! TD*
G04 #@! TA.AperFunction,NonConductor*
%ADD11C,0.200000*%
G04 #@! TD*
G04 #@! TA.AperFunction,ComponentPad*
%ADD12R,2.000000X1.900000*%
G04 #@! TD*
G04 #@! TA.AperFunction,ComponentPad*
%ADD13C,1.900000*%
G04 #@! TD*
G04 #@! TA.AperFunction,SMDPad,CuDef*
%ADD14R,1.780540X0.304800*%
G04 #@! TD*
G04 #@! TA.AperFunction,SMDPad,CuDef*
%ADD15R,1.780540X0.299720*%
G04 #@! TD*
G04 #@! TA.AperFunction,SMDPad,CuDef*
%ADD16R,1.397000X0.889000*%
G04 #@! TD*
G04 #@! TA.AperFunction,SMDPad,CuDef*
%ADD17R,0.900000X0.400000*%
G04 #@! TD*
G04 #@! TA.AperFunction,SMDPad,CuDef*
%ADD18R,0.889000X1.397000*%
G04 #@! TD*
G04 #@! TA.AperFunction,SMDPad,CuDef*
%ADD19R,1.143000X0.635000*%
G04 #@! TD*
G04 #@! TA.AperFunction,ViaPad*
%ADD20C,0.711200*%
G04 #@! TD*
G04 #@! TA.AperFunction,Conductor*
%ADD21C,0.304800*%
G04 #@! TD*
G04 #@! TA.AperFunction,Conductor*
%ADD22C,0.203200*%
G04 #@! TD*
G04 #@! TA.AperFunction,Conductor*
%ADD23C,0.406400*%
G04 #@! TD*
G04 #@! TA.AperFunction,Conductor*
%ADD24C,0.254000*%
G04 #@! TD*
G04 APERTURE END LIST*
D10*
X140534800Y-96321733D02*
X140534800Y-95847600D01*
X140534800Y-95983066D02*
X140568666Y-95915333D01*
X140602533Y-95881466D01*
X140670266Y-95847600D01*
X140738000Y-95847600D01*
X141246000Y-96287866D02*
X141178266Y-96321733D01*
X141042800Y-96321733D01*
X140975066Y-96287866D01*
X140941200Y-96220133D01*
X140941200Y-95949200D01*
X140975066Y-95881466D01*
X141042800Y-95847600D01*
X141178266Y-95847600D01*
X141246000Y-95881466D01*
X141279866Y-95949200D01*
X141279866Y-96016933D01*
X140941200Y-96084666D01*
X141516933Y-95847600D02*
X141686266Y-96321733D01*
X141855600Y-95847600D01*
X142499066Y-96321733D02*
X142092666Y-96321733D01*
X142295866Y-96321733D02*
X142295866Y-95610533D01*
X142228133Y-95712133D01*
X142160400Y-95779866D01*
X142092666Y-95813733D01*
X130201506Y-114118533D02*
X130540173Y-114118533D01*
X130133773Y-114321733D02*
X130370840Y-113610533D01*
X130607906Y-114321733D01*
X131149773Y-113847600D02*
X131149773Y-114423333D01*
X131115906Y-114491066D01*
X131082040Y-114524933D01*
X131014306Y-114558800D01*
X130912706Y-114558800D01*
X130844973Y-114524933D01*
X131149773Y-114287866D02*
X131082040Y-114321733D01*
X130946573Y-114321733D01*
X130878840Y-114287866D01*
X130844973Y-114254000D01*
X130811106Y-114186266D01*
X130811106Y-113983066D01*
X130844973Y-113915333D01*
X130878840Y-113881466D01*
X130946573Y-113847600D01*
X131082040Y-113847600D01*
X131149773Y-113881466D01*
X131488440Y-114321733D02*
X131488440Y-113847600D01*
X131488440Y-113610533D02*
X131454573Y-113644400D01*
X131488440Y-113678266D01*
X131522306Y-113644400D01*
X131488440Y-113610533D01*
X131488440Y-113678266D01*
X131928706Y-114321733D02*
X131860973Y-114287866D01*
X131827106Y-114220133D01*
X131827106Y-113610533D01*
X132504440Y-114321733D02*
X132504440Y-113949200D01*
X132470573Y-113881466D01*
X132402840Y-113847600D01*
X132267373Y-113847600D01*
X132199640Y-113881466D01*
X132504440Y-114287866D02*
X132436706Y-114321733D01*
X132267373Y-114321733D01*
X132199640Y-114287866D01*
X132165773Y-114220133D01*
X132165773Y-114152400D01*
X132199640Y-114084666D01*
X132267373Y-114050800D01*
X132436706Y-114050800D01*
X132504440Y-114016933D01*
X133147906Y-114287866D02*
X133080173Y-114321733D01*
X132944706Y-114321733D01*
X132876973Y-114287866D01*
X132843106Y-114254000D01*
X132809240Y-114186266D01*
X132809240Y-113983066D01*
X132843106Y-113915333D01*
X132876973Y-113881466D01*
X132944706Y-113847600D01*
X133080173Y-113847600D01*
X133147906Y-113881466D01*
X133452706Y-114321733D02*
X133452706Y-113610533D01*
X133520440Y-114050800D02*
X133723640Y-114321733D01*
X133723640Y-113847600D02*
X133452706Y-114118533D01*
X134976706Y-114254000D02*
X134942840Y-114287866D01*
X134841240Y-114321733D01*
X134773506Y-114321733D01*
X134671906Y-114287866D01*
X134604173Y-114220133D01*
X134570306Y-114152400D01*
X134536440Y-114016933D01*
X134536440Y-113915333D01*
X134570306Y-113779866D01*
X134604173Y-113712133D01*
X134671906Y-113644400D01*
X134773506Y-113610533D01*
X134841240Y-113610533D01*
X134942840Y-113644400D01*
X134976706Y-113678266D01*
X135687906Y-114254000D02*
X135654040Y-114287866D01*
X135552440Y-114321733D01*
X135484706Y-114321733D01*
X135383106Y-114287866D01*
X135315373Y-114220133D01*
X135281506Y-114152400D01*
X135247640Y-114016933D01*
X135247640Y-113915333D01*
X135281506Y-113779866D01*
X135315373Y-113712133D01*
X135383106Y-113644400D01*
X135484706Y-113610533D01*
X135552440Y-113610533D01*
X135654040Y-113644400D01*
X135687906Y-113678266D01*
X135992706Y-114050800D02*
X136534573Y-114050800D01*
X136873240Y-114321733D02*
X136873240Y-113610533D01*
X136873240Y-113881466D02*
X136940973Y-113847600D01*
X137076440Y-113847600D01*
X137144173Y-113881466D01*
X137178040Y-113915333D01*
X137211906Y-113983066D01*
X137211906Y-114186266D01*
X137178040Y-114254000D01*
X137144173Y-114287866D01*
X137076440Y-114321733D01*
X136940973Y-114321733D01*
X136873240Y-114287866D01*
X137448973Y-113847600D02*
X137618306Y-114321733D01*
X137787640Y-113847600D02*
X137618306Y-114321733D01*
X137550573Y-114491066D01*
X137516706Y-114524933D01*
X137448973Y-114558800D01*
X138058573Y-114050800D02*
X138600440Y-114050800D01*
X138905240Y-114287866D02*
X139006840Y-114321733D01*
X139176173Y-114321733D01*
X139243906Y-114287866D01*
X139277773Y-114254000D01*
X139311640Y-114186266D01*
X139311640Y-114118533D01*
X139277773Y-114050800D01*
X139243906Y-114016933D01*
X139176173Y-113983066D01*
X139040706Y-113949200D01*
X138972973Y-113915333D01*
X138939106Y-113881466D01*
X138905240Y-113813733D01*
X138905240Y-113746000D01*
X138939106Y-113678266D01*
X138972973Y-113644400D01*
X139040706Y-113610533D01*
X139210040Y-113610533D01*
X139311640Y-113644400D01*
X139582573Y-114118533D02*
X139921240Y-114118533D01*
X139514840Y-114321733D02*
X139751906Y-113610533D01*
X139988973Y-114321733D01*
D11*
X130368095Y-96452380D02*
X130368095Y-95452380D01*
X130749047Y-95452380D01*
X130844285Y-95500000D01*
X130891904Y-95547619D01*
X130939523Y-95642857D01*
X130939523Y-95785714D01*
X130891904Y-95880952D01*
X130844285Y-95928571D01*
X130749047Y-95976190D01*
X130368095Y-95976190D01*
X131368095Y-96452380D02*
X131368095Y-95452380D01*
X131701428Y-96166666D01*
X132034761Y-95452380D01*
X132034761Y-96452380D01*
X132701428Y-95452380D02*
X132891904Y-95452380D01*
X132987142Y-95500000D01*
X133082380Y-95595238D01*
X133130000Y-95785714D01*
X133130000Y-96119047D01*
X133082380Y-96309523D01*
X132987142Y-96404761D01*
X132891904Y-96452380D01*
X132701428Y-96452380D01*
X132606190Y-96404761D01*
X132510952Y-96309523D01*
X132463333Y-96119047D01*
X132463333Y-95785714D01*
X132510952Y-95595238D01*
X132606190Y-95500000D01*
X132701428Y-95452380D01*
X133558571Y-96452380D02*
X133558571Y-95452380D01*
X133796666Y-95452380D01*
X133939523Y-95500000D01*
X134034761Y-95595238D01*
X134082380Y-95690476D01*
X134130000Y-95880952D01*
X134130000Y-96023809D01*
X134082380Y-96214285D01*
X134034761Y-96309523D01*
X133939523Y-96404761D01*
X133796666Y-96452380D01*
X133558571Y-96452380D01*
X135463333Y-95880952D02*
X135368095Y-95833333D01*
X135320476Y-95785714D01*
X135272857Y-95690476D01*
X135272857Y-95642857D01*
X135320476Y-95547619D01*
X135368095Y-95500000D01*
X135463333Y-95452380D01*
X135653809Y-95452380D01*
X135749047Y-95500000D01*
X135796666Y-95547619D01*
X135844285Y-95642857D01*
X135844285Y-95690476D01*
X135796666Y-95785714D01*
X135749047Y-95833333D01*
X135653809Y-95880952D01*
X135463333Y-95880952D01*
X135368095Y-95928571D01*
X135320476Y-95976190D01*
X135272857Y-96071428D01*
X135272857Y-96261904D01*
X135320476Y-96357142D01*
X135368095Y-96404761D01*
X135463333Y-96452380D01*
X135653809Y-96452380D01*
X135749047Y-96404761D01*
X135796666Y-96357142D01*
X135844285Y-96261904D01*
X135844285Y-96071428D01*
X135796666Y-95976190D01*
X135749047Y-95928571D01*
X135653809Y-95880952D01*
X136749047Y-96452380D02*
X136272857Y-96452380D01*
X136272857Y-95452380D01*
X137463333Y-96404761D02*
X137368095Y-96452380D01*
X137177619Y-96452380D01*
X137082380Y-96404761D01*
X137034761Y-96309523D01*
X137034761Y-95928571D01*
X137082380Y-95833333D01*
X137177619Y-95785714D01*
X137368095Y-95785714D01*
X137463333Y-95833333D01*
X137510952Y-95928571D01*
X137510952Y-96023809D01*
X137034761Y-96119047D01*
X138368095Y-96452380D02*
X138368095Y-95452380D01*
X138368095Y-96404761D02*
X138272857Y-96452380D01*
X138082380Y-96452380D01*
X137987142Y-96404761D01*
X137939523Y-96357142D01*
X137891904Y-96261904D01*
X137891904Y-95976190D01*
X137939523Y-95880952D01*
X137987142Y-95833333D01*
X138082380Y-95785714D01*
X138272857Y-95785714D01*
X138368095Y-95833333D01*
X138796666Y-96404761D02*
X138891904Y-96452380D01*
X139082380Y-96452380D01*
X139177619Y-96404761D01*
X139225238Y-96309523D01*
X139225238Y-96261904D01*
X139177619Y-96166666D01*
X139082380Y-96119047D01*
X138939523Y-96119047D01*
X138844285Y-96071428D01*
X138796666Y-95976190D01*
X138796666Y-95928571D01*
X138844285Y-95833333D01*
X138939523Y-95785714D01*
X139082380Y-95785714D01*
X139177619Y-95833333D01*
D12*
G04 #@! TO.P,P1,1*
G04 #@! TO.N,PMOD_IO1*
X136040000Y-98650000D03*
D13*
G04 #@! TO.P,P1,2*
G04 #@! TO.N,PMOD_IO2*
X136040000Y-101190000D03*
G04 #@! TO.P,P1,3*
G04 #@! TO.N,PMOD_IO3*
X136040000Y-103730000D03*
G04 #@! TO.P,P1,4*
G04 #@! TO.N,PMOD_IO4*
X136040000Y-106270000D03*
G04 #@! TO.P,P1,5*
G04 #@! TO.N,GND*
X136040000Y-108810000D03*
G04 #@! TO.P,P1,6*
G04 #@! TO.N,VCC*
X136040000Y-111350000D03*
G04 #@! TO.P,P1,7*
G04 #@! TO.N,PMOD_IO5*
X133500000Y-98650000D03*
G04 #@! TO.P,P1,8*
G04 #@! TO.N,PMOD_IO6*
X133500000Y-101190000D03*
G04 #@! TO.P,P1,9*
G04 #@! TO.N,PMOD_IO7*
X133500000Y-103730000D03*
G04 #@! TO.P,P1,10*
G04 #@! TO.N,PMOD_IO8*
X133500000Y-106270000D03*
G04 #@! TO.P,P1,11*
G04 #@! TO.N,GND*
X133500000Y-108810000D03*
G04 #@! TO.P,P1,12*
G04 #@! TO.N,VCC*
X133500000Y-111350000D03*
G04 #@! TD*
D14*
G04 #@! TO.P,U1,2*
G04 #@! TO.N,PMOD_IO1*
X139530740Y-100175000D03*
G04 #@! TO.P,U1,3*
G04 #@! TO.N,PMOD_IO5*
X139530740Y-100825000D03*
G04 #@! TO.P,U1,4*
G04 #@! TO.N,PMOD_IO2*
X139530740Y-101475000D03*
G04 #@! TO.P,U1,5*
G04 #@! TO.N,PMOD_IO6*
X139530740Y-102125000D03*
G04 #@! TO.P,U1,6*
G04 #@! TO.N,PMOD_IO3*
X139530740Y-102775000D03*
G04 #@! TO.P,U1,7*
G04 #@! TO.N,PMOD_IO7*
X139530740Y-103425000D03*
G04 #@! TO.P,U1,8*
G04 #@! TO.N,PMOD_IO4*
X139530740Y-104075000D03*
G04 #@! TO.P,U1,9*
G04 #@! TO.N,PMOD_IO8*
X139530740Y-104725000D03*
D15*
G04 #@! TO.P,U1,12*
G04 #@! TO.N,Net-(RP2-Pad3)*
X145469260Y-104725000D03*
G04 #@! TO.P,U1,13*
G04 #@! TO.N,Net-(RP2-Pad2)*
X145469260Y-104075000D03*
G04 #@! TO.P,U1,14*
G04 #@! TO.N,Net-(RP2-Pad1)*
X145469260Y-103425000D03*
G04 #@! TO.P,U1,15*
G04 #@! TO.N,Net-(RP1-Pad4)*
X145469260Y-102775000D03*
G04 #@! TO.P,U1,16*
G04 #@! TO.N,Net-(RP1-Pad3)*
X145469260Y-102125000D03*
G04 #@! TO.P,U1,17*
G04 #@! TO.N,Net-(RP1-Pad2)*
X145469260Y-101475000D03*
G04 #@! TO.P,U1,18*
G04 #@! TO.N,Net-(RP1-Pad1)*
X145469260Y-100825000D03*
G04 #@! TO.P,U1,19*
G04 #@! TO.N,GND*
X145469260Y-100175000D03*
D14*
G04 #@! TO.P,U1,1*
X139528200Y-99525000D03*
G04 #@! TO.P,U1,10*
X139528200Y-105375000D03*
G04 #@! TO.P,U1,11*
G04 #@! TO.N,Net-(RP2-Pad4)*
X145469260Y-105375000D03*
D15*
G04 #@! TO.P,U1,20*
G04 #@! TO.N,VCC*
X145469260Y-99525000D03*
G04 #@! TD*
D16*
G04 #@! TO.P,C1,1*
G04 #@! TO.N,VCC*
X138250000Y-111052500D03*
G04 #@! TO.P,C1,2*
G04 #@! TO.N,GND*
X138250000Y-109147500D03*
G04 #@! TD*
D17*
G04 #@! TO.P,RP1,2*
G04 #@! TO.N,Net-(RP1-Pad2)*
X148650000Y-100950000D03*
G04 #@! TO.P,RP1,3*
G04 #@! TO.N,Net-(RP1-Pad3)*
X148650000Y-101750000D03*
G04 #@! TO.P,RP1,1*
G04 #@! TO.N,Net-(RP1-Pad1)*
X148650000Y-100150000D03*
G04 #@! TO.P,RP1,4*
G04 #@! TO.N,Net-(RP1-Pad4)*
X148650000Y-102550000D03*
G04 #@! TO.P,RP1,8*
G04 #@! TO.N,Net-(D1-Pad1)*
X150350000Y-100150000D03*
G04 #@! TO.P,RP1,7*
G04 #@! TO.N,Net-(D5-Pad1)*
X150350000Y-100950000D03*
G04 #@! TO.P,RP1,6*
G04 #@! TO.N,Net-(D2-Pad1)*
X150350000Y-101750000D03*
G04 #@! TO.P,RP1,5*
G04 #@! TO.N,Net-(D6-Pad1)*
X150350000Y-102550000D03*
G04 #@! TD*
G04 #@! TO.P,RP2,5*
G04 #@! TO.N,Net-(D8-Pad1)*
X150350000Y-106050000D03*
G04 #@! TO.P,RP2,6*
G04 #@! TO.N,Net-(D4-Pad1)*
X150350000Y-105250000D03*
G04 #@! TO.P,RP2,7*
G04 #@! TO.N,Net-(D7-Pad1)*
X150350000Y-104450000D03*
G04 #@! TO.P,RP2,8*
G04 #@! TO.N,Net-(D3-Pad1)*
X150350000Y-103650000D03*
G04 #@! TO.P,RP2,4*
G04 #@! TO.N,Net-(RP2-Pad4)*
X148650000Y-106050000D03*
G04 #@! TO.P,RP2,1*
G04 #@! TO.N,Net-(RP2-Pad1)*
X148650000Y-103650000D03*
G04 #@! TO.P,RP2,3*
G04 #@! TO.N,Net-(RP2-Pad3)*
X148650000Y-105250000D03*
G04 #@! TO.P,RP2,2*
G04 #@! TO.N,Net-(RP2-Pad2)*
X148650000Y-104450000D03*
G04 #@! TD*
D18*
G04 #@! TO.P,D1,2*
G04 #@! TO.N,GND*
X164952500Y-99000000D03*
G04 #@! TO.P,D1,1*
G04 #@! TO.N,Net-(D1-Pad1)*
X163047500Y-99000000D03*
G04 #@! TD*
G04 #@! TO.P,D2,2*
G04 #@! TO.N,GND*
X164952500Y-103000000D03*
G04 #@! TO.P,D2,1*
G04 #@! TO.N,Net-(D2-Pad1)*
X163047500Y-103000000D03*
G04 #@! TD*
G04 #@! TO.P,D3,2*
G04 #@! TO.N,GND*
X164952500Y-107000000D03*
G04 #@! TO.P,D3,1*
G04 #@! TO.N,Net-(D3-Pad1)*
X163047500Y-107000000D03*
G04 #@! TD*
G04 #@! TO.P,D4,2*
G04 #@! TO.N,GND*
X164952500Y-111000000D03*
G04 #@! TO.P,D4,1*
G04 #@! TO.N,Net-(D4-Pad1)*
X163047500Y-111000000D03*
G04 #@! TD*
G04 #@! TO.P,D5,1*
G04 #@! TO.N,Net-(D5-Pad1)*
X158047500Y-99000000D03*
G04 #@! TO.P,D5,2*
G04 #@! TO.N,GND*
X159952500Y-99000000D03*
G04 #@! TD*
G04 #@! TO.P,D6,1*
G04 #@! TO.N,Net-(D6-Pad1)*
X158047500Y-103000000D03*
G04 #@! TO.P,D6,2*
G04 #@! TO.N,GND*
X159952500Y-103000000D03*
G04 #@! TD*
G04 #@! TO.P,D7,1*
G04 #@! TO.N,Net-(D7-Pad1)*
X158047500Y-107000000D03*
G04 #@! TO.P,D7,2*
G04 #@! TO.N,GND*
X159952500Y-107000000D03*
G04 #@! TD*
G04 #@! TO.P,D8,1*
G04 #@! TO.N,Net-(D8-Pad1)*
X158047500Y-111000000D03*
G04 #@! TO.P,D8,2*
G04 #@! TO.N,GND*
X159952500Y-111000000D03*
G04 #@! TD*
D19*
G04 #@! TO.P,C2,1*
G04 #@! TO.N,VCC*
X145500000Y-98262000D03*
G04 #@! TO.P,C2,2*
G04 #@! TO.N,GND*
X145500000Y-96738000D03*
G04 #@! TD*
D20*
G04 #@! TO.N,GND*
X141000000Y-105370000D03*
X144000000Y-100170000D03*
X161250000Y-99000000D03*
X166250000Y-99000000D03*
X166250000Y-103000000D03*
X161250000Y-103000000D03*
X166250000Y-105000000D03*
X161250000Y-107000000D03*
X166250000Y-107000000D03*
X166250000Y-111000000D03*
X161250000Y-111000000D03*
X146750000Y-96750000D03*
X166250000Y-101000000D03*
X166250000Y-97000000D03*
X166250000Y-109000000D03*
X166250000Y-113000000D03*
X154000000Y-104000000D03*
X149500000Y-107000000D03*
X149500000Y-99200000D03*
X139500000Y-98500000D03*
X130250000Y-105000000D03*
X130250000Y-107000000D03*
X130250000Y-103000000D03*
G04 #@! TD*
D21*
G04 #@! TO.N,PMOD_IO1*
X136040000Y-98650000D02*
X137260000Y-98650000D01*
X137260000Y-98650000D02*
X137690000Y-99080000D01*
X137690000Y-99080000D02*
X137690000Y-99670000D01*
X137690000Y-99670000D02*
X138190000Y-100170000D01*
X138190000Y-100170000D02*
X138400000Y-100170000D01*
D22*
X138400000Y-100170000D02*
X139525740Y-100170000D01*
X139525740Y-100170000D02*
X139530740Y-100175000D01*
D21*
G04 #@! TO.N,PMOD_IO2*
X136040000Y-101190000D02*
X137300000Y-101190000D01*
X137300000Y-101190000D02*
X137580000Y-101470000D01*
X137580000Y-101470000D02*
X138400000Y-101470000D01*
D22*
X138400000Y-101470000D02*
X139525740Y-101470000D01*
X139525740Y-101470000D02*
X139530740Y-101475000D01*
D21*
G04 #@! TO.N,PMOD_IO3*
X136040000Y-103730000D02*
X137230000Y-103730000D01*
X137230000Y-103730000D02*
X138190000Y-102770000D01*
X138190000Y-102770000D02*
X138400000Y-102770000D01*
D22*
X138400000Y-102770000D02*
X139525740Y-102770000D01*
X139525740Y-102770000D02*
X139530740Y-102775000D01*
D21*
G04 #@! TO.N,PMOD_IO4*
X136040000Y-106270000D02*
X137300000Y-106270000D01*
X137300000Y-106270000D02*
X137650000Y-105920000D01*
X137650000Y-105920000D02*
X137650000Y-104820000D01*
X137650000Y-104820000D02*
X138400000Y-104070000D01*
D22*
X138400000Y-104070000D02*
X139525740Y-104070000D01*
X139525740Y-104070000D02*
X139530740Y-104075000D01*
D21*
G04 #@! TO.N,GND*
X139528200Y-105375000D02*
X140995000Y-105375000D01*
X140995000Y-105375000D02*
X141000000Y-105370000D01*
D23*
X133500000Y-108810000D02*
X136040000Y-108810000D01*
X136040000Y-108810000D02*
X137220000Y-108810000D01*
X137220000Y-108810000D02*
X137330000Y-108920000D01*
X137330000Y-108920000D02*
X138022500Y-108920000D01*
X138022500Y-108920000D02*
X138250000Y-109147500D01*
D22*
X141000000Y-105370000D02*
X141000000Y-99820000D01*
X141000000Y-99820000D02*
X140700000Y-99520000D01*
X140700000Y-99520000D02*
X139533200Y-99520000D01*
X139533200Y-99520000D02*
X139528200Y-99525000D01*
D21*
X145469260Y-100175000D02*
X144005000Y-100175000D01*
X144005000Y-100175000D02*
X144000000Y-100170000D01*
D23*
X161250000Y-99000000D02*
X159952500Y-99000000D01*
X166250000Y-99000000D02*
X164952500Y-99000000D01*
X166250000Y-103000000D02*
X164952500Y-103000000D01*
X161250000Y-103000000D02*
X159952500Y-103000000D01*
X161250000Y-107000000D02*
X159952500Y-107000000D01*
X166250000Y-107000000D02*
X164952500Y-107000000D01*
X166250000Y-111000000D02*
X164952500Y-111000000D01*
X161250000Y-111000000D02*
X159952500Y-111000000D01*
D21*
X146750000Y-96750000D02*
X145512000Y-96750000D01*
X145512000Y-96750000D02*
X145500000Y-96738000D01*
D23*
G04 #@! TO.N,VCC*
X133500000Y-111350000D02*
X136040000Y-111350000D01*
X136040000Y-111350000D02*
X137210000Y-111350000D01*
X137210000Y-111350000D02*
X137280000Y-111280000D01*
X137280000Y-111280000D02*
X138022500Y-111280000D01*
X138022500Y-111280000D02*
X138250000Y-111052500D01*
X138250000Y-111052500D02*
X139467500Y-111052500D01*
X139467500Y-111052500D02*
X142500000Y-108020000D01*
X142500000Y-108020000D02*
X142500000Y-99580000D01*
X145500000Y-98262000D02*
X143818000Y-98262000D01*
X143818000Y-98262000D02*
X142500000Y-99580000D01*
D22*
X146650000Y-99520000D02*
X145474260Y-99520000D01*
X145474260Y-99520000D02*
X145469260Y-99525000D01*
D21*
X146650000Y-99520000D02*
X147000000Y-99520000D01*
X147000000Y-99520000D02*
X147250000Y-99270000D01*
X147250000Y-99270000D02*
X147250000Y-98500000D01*
X147250000Y-98500000D02*
X147000000Y-98250000D01*
X147000000Y-98250000D02*
X145512000Y-98250000D01*
X145512000Y-98250000D02*
X145500000Y-98262000D01*
G04 #@! TO.N,PMOD_IO5*
X134770000Y-99920000D02*
X133500000Y-98650000D01*
X134770000Y-99920000D02*
X136940000Y-99920000D01*
X136940000Y-99920000D02*
X137840000Y-100820000D01*
X137840000Y-100820000D02*
X138400000Y-100820000D01*
D22*
X138400000Y-100820000D02*
X139525740Y-100820000D01*
X139525740Y-100820000D02*
X139530740Y-100825000D01*
D21*
G04 #@! TO.N,PMOD_IO6*
X133500000Y-101190000D02*
X134770000Y-102460000D01*
X134770000Y-102460000D02*
X137500000Y-102460000D01*
X137500000Y-102460000D02*
X137840000Y-102120000D01*
X137840000Y-102120000D02*
X138400000Y-102120000D01*
D22*
X138400000Y-102120000D02*
X139525740Y-102120000D01*
X139525740Y-102120000D02*
X139530740Y-102125000D01*
D21*
G04 #@! TO.N,PMOD_IO7*
X133500000Y-103730000D02*
X134770000Y-105000000D01*
D22*
X138400000Y-103420000D02*
X139525740Y-103420000D01*
X139525740Y-103420000D02*
X139530740Y-103425000D01*
D21*
X134770000Y-105000000D02*
X136670000Y-105000000D01*
X136670000Y-105000000D02*
X138250000Y-103420000D01*
X138250000Y-103420000D02*
X138400000Y-103420000D01*
G04 #@! TO.N,PMOD_IO8*
X133500000Y-106270000D02*
X134770000Y-107540000D01*
X134770000Y-107540000D02*
X137040000Y-107540000D01*
X137040000Y-107540000D02*
X138150000Y-106430000D01*
X138150000Y-106430000D02*
X138150000Y-104970000D01*
D22*
X138150000Y-104970000D02*
X138400000Y-104720000D01*
X138400000Y-104720000D02*
X139525740Y-104720000D01*
X139525740Y-104720000D02*
X139530740Y-104725000D01*
D21*
G04 #@! TO.N,Net-(RP2-Pad3)*
X145469260Y-104725000D02*
X146965000Y-104725000D01*
X146965000Y-104725000D02*
X147490000Y-105250000D01*
X147490000Y-105250000D02*
X148650000Y-105250000D01*
G04 #@! TO.N,Net-(RP2-Pad2)*
X145469260Y-104075000D02*
X147105000Y-104075000D01*
X147105000Y-104075000D02*
X147480000Y-104450000D01*
X147480000Y-104450000D02*
X148650000Y-104450000D01*
G04 #@! TO.N,Net-(RP2-Pad1)*
X145469260Y-103425000D02*
X147245000Y-103425000D01*
X147245000Y-103425000D02*
X147470000Y-103650000D01*
X147470000Y-103650000D02*
X148650000Y-103650000D01*
G04 #@! TO.N,Net-(RP1-Pad4)*
X148650000Y-102550000D02*
X147470000Y-102550000D01*
X145469260Y-102775000D02*
X147245000Y-102775000D01*
X147245000Y-102775000D02*
X147470000Y-102550000D01*
G04 #@! TO.N,Net-(RP1-Pad3)*
X148650000Y-101750000D02*
X147480000Y-101750000D01*
X145469260Y-102125000D02*
X147105000Y-102125000D01*
X147105000Y-102125000D02*
X147480000Y-101750000D01*
G04 #@! TO.N,Net-(RP1-Pad2)*
X148650000Y-100950000D02*
X147490000Y-100950000D01*
X145469260Y-101475000D02*
X146965000Y-101475000D01*
X146965000Y-101475000D02*
X147490000Y-100950000D01*
G04 #@! TO.N,Net-(RP1-Pad1)*
X148650000Y-100150000D02*
X147500000Y-100150000D01*
X145469260Y-100825000D02*
X146825000Y-100825000D01*
X146825000Y-100825000D02*
X147500000Y-100150000D01*
G04 #@! TO.N,Net-(RP2-Pad4)*
X146825000Y-105375000D02*
X147500000Y-106050000D01*
X147500000Y-106050000D02*
X148650000Y-106050000D01*
X146650000Y-105375000D02*
X146825000Y-105375000D01*
D22*
X146650000Y-105375000D02*
X145469260Y-105375000D01*
D21*
G04 #@! TO.N,Net-(D1-Pad1)*
X163047500Y-99000000D02*
X163047500Y-98747500D01*
X163047500Y-98747500D02*
X162050000Y-97750000D01*
X150350000Y-100150000D02*
X151750000Y-100150000D01*
X162050000Y-97750000D02*
X154150000Y-97750000D01*
X154150000Y-97750000D02*
X151750000Y-100150000D01*
G04 #@! TO.N,Net-(D5-Pad1)*
X150350000Y-100950000D02*
X152000000Y-100950000D01*
X158047500Y-99000000D02*
X153950000Y-99000000D01*
X153950000Y-99000000D02*
X152000000Y-100950000D01*
G04 #@! TO.N,Net-(D2-Pad1)*
X163047500Y-103000000D02*
X163047500Y-102747500D01*
X163047500Y-102747500D02*
X161300000Y-101000000D01*
X150350000Y-101750000D02*
X152250000Y-101750000D01*
X161300000Y-101000000D02*
X153000000Y-101000000D01*
X153000000Y-101000000D02*
X152250000Y-101750000D01*
G04 #@! TO.N,Net-(D6-Pad1)*
X150350000Y-102550000D02*
X152250000Y-102550000D01*
X158047500Y-103000000D02*
X152700000Y-103000000D01*
X152700000Y-103000000D02*
X152250000Y-102550000D01*
G04 #@! TO.N,Net-(D8-Pad1)*
X150350000Y-106050000D02*
X151250000Y-106050000D01*
X158047500Y-111000000D02*
X156200000Y-111000000D01*
X156200000Y-111000000D02*
X151250000Y-106050000D01*
G04 #@! TO.N,Net-(D4-Pad1)*
X150350000Y-105250000D02*
X151500000Y-105250000D01*
X163047500Y-111000000D02*
X163047500Y-110747500D01*
X163047500Y-110747500D02*
X161300000Y-109000000D01*
X161300000Y-109000000D02*
X155250000Y-109000000D01*
X155250000Y-109000000D02*
X151500000Y-105250000D01*
G04 #@! TO.N,Net-(D7-Pad1)*
X150350000Y-104450000D02*
X151750000Y-104450000D01*
X158047500Y-107000000D02*
X154300000Y-107000000D01*
X154300000Y-107000000D02*
X151750000Y-104450000D01*
G04 #@! TO.N,Net-(D3-Pad1)*
X150350000Y-103650000D02*
X152000000Y-103650000D01*
X163047500Y-107000000D02*
X163047500Y-106747500D01*
X163047500Y-106747500D02*
X161300000Y-105000000D01*
X161300000Y-105000000D02*
X153350000Y-105000000D01*
X153350000Y-105000000D02*
X152000000Y-103650000D01*
G04 #@! TD*
D24*
G04 #@! TO.N,GND*
G36*
X167195601Y-114805600D02*
X140627000Y-114805600D01*
X140627000Y-113000000D01*
X140617333Y-112951399D01*
X140589803Y-112910197D01*
X140548601Y-112882667D01*
X140500000Y-112873000D01*
X129804400Y-112873000D01*
X129804400Y-111105457D01*
X132270600Y-111105457D01*
X132270600Y-111594543D01*
X132457765Y-112046399D01*
X132803601Y-112392235D01*
X133255457Y-112579400D01*
X133744543Y-112579400D01*
X134196399Y-112392235D01*
X134542235Y-112046399D01*
X134630794Y-111832600D01*
X134909206Y-111832600D01*
X134997765Y-112046399D01*
X135343601Y-112392235D01*
X135795457Y-112579400D01*
X136284543Y-112579400D01*
X136736399Y-112392235D01*
X137082235Y-112046399D01*
X137170160Y-111834129D01*
X137210000Y-111842054D01*
X137257528Y-111832600D01*
X137257529Y-111832600D01*
X137398301Y-111804599D01*
X137459655Y-111763604D01*
X137551500Y-111781873D01*
X138948500Y-111781873D01*
X139057516Y-111760188D01*
X139149936Y-111698436D01*
X139211688Y-111606016D01*
X139225794Y-111535100D01*
X139419972Y-111535100D01*
X139467500Y-111544554D01*
X139515028Y-111535100D01*
X139515029Y-111535100D01*
X139655801Y-111507099D01*
X139815435Y-111400435D01*
X139842362Y-111360136D01*
X142807643Y-108394857D01*
X142847935Y-108367935D01*
X142954599Y-108208301D01*
X142982600Y-108067529D01*
X142982600Y-108067528D01*
X142992054Y-108020000D01*
X142982600Y-107972471D01*
X142982600Y-99779898D01*
X144017899Y-98744600D01*
X144702785Y-98744600D01*
X144727064Y-98780936D01*
X144819484Y-98842688D01*
X144928500Y-98864373D01*
X146071500Y-98864373D01*
X146180516Y-98842688D01*
X146272936Y-98780936D01*
X146334688Y-98688516D01*
X146336024Y-98681800D01*
X146818201Y-98681800D01*
X146818200Y-99088200D01*
X146607474Y-99088200D01*
X146481520Y-99113254D01*
X146476007Y-99116937D01*
X146468546Y-99111952D01*
X146359530Y-99090267D01*
X144578990Y-99090267D01*
X144469974Y-99111952D01*
X144377554Y-99173704D01*
X144315802Y-99266124D01*
X144294117Y-99375140D01*
X144294117Y-99674860D01*
X144315802Y-99783876D01*
X144330814Y-99806343D01*
X144299060Y-99838097D01*
X144248790Y-99959459D01*
X144248790Y-100017520D01*
X144331340Y-100100070D01*
X145342260Y-100100070D01*
X145342260Y-100028000D01*
X145596260Y-100028000D01*
X145596260Y-100100070D01*
X146607180Y-100100070D01*
X146689730Y-100017520D01*
X146689730Y-99959459D01*
X146686558Y-99951800D01*
X146957478Y-99951800D01*
X147000000Y-99960258D01*
X147042522Y-99951800D01*
X147042526Y-99951800D01*
X147098720Y-99940622D01*
X146689730Y-100349613D01*
X146689730Y-100332480D01*
X146607180Y-100249930D01*
X145596260Y-100249930D01*
X145596260Y-100322000D01*
X145342260Y-100322000D01*
X145342260Y-100249930D01*
X144331340Y-100249930D01*
X144248790Y-100332480D01*
X144248790Y-100390541D01*
X144299060Y-100511903D01*
X144330814Y-100543657D01*
X144315802Y-100566124D01*
X144294117Y-100675140D01*
X144294117Y-100974860D01*
X144315802Y-101083876D01*
X144359984Y-101150000D01*
X144315802Y-101216124D01*
X144294117Y-101325140D01*
X144294117Y-101624860D01*
X144315802Y-101733876D01*
X144359984Y-101800000D01*
X144315802Y-101866124D01*
X144294117Y-101975140D01*
X144294117Y-102274860D01*
X144315802Y-102383876D01*
X144359984Y-102450000D01*
X144315802Y-102516124D01*
X144294117Y-102625140D01*
X144294117Y-102924860D01*
X144315802Y-103033876D01*
X144359984Y-103100000D01*
X144315802Y-103166124D01*
X144294117Y-103275140D01*
X144294117Y-103574860D01*
X144315802Y-103683876D01*
X144359984Y-103750000D01*
X144315802Y-103816124D01*
X144294117Y-103925140D01*
X144294117Y-104224860D01*
X144315802Y-104333876D01*
X144359984Y-104400000D01*
X144315802Y-104466124D01*
X144294117Y-104575140D01*
X144294117Y-104874860D01*
X144315802Y-104983876D01*
X144359135Y-105048730D01*
X144315802Y-105113584D01*
X144294117Y-105222600D01*
X144294117Y-105527400D01*
X144315802Y-105636416D01*
X144377554Y-105728836D01*
X144469974Y-105790588D01*
X144578990Y-105812273D01*
X146359530Y-105812273D01*
X146468546Y-105790588D01*
X146481720Y-105781786D01*
X146607474Y-105806800D01*
X146646143Y-105806800D01*
X147164602Y-106325260D01*
X147188690Y-106361310D01*
X147224740Y-106385398D01*
X147224741Y-106385399D01*
X147304183Y-106438480D01*
X147331520Y-106456746D01*
X147457474Y-106481800D01*
X147457477Y-106481800D01*
X147499999Y-106490258D01*
X147542521Y-106481800D01*
X148044008Y-106481800D01*
X148090984Y-106513188D01*
X148200000Y-106534873D01*
X149100000Y-106534873D01*
X149209016Y-106513188D01*
X149301436Y-106451436D01*
X149363188Y-106359016D01*
X149384873Y-106250000D01*
X149384873Y-105850000D01*
X149363188Y-105740984D01*
X149302395Y-105650000D01*
X149363188Y-105559016D01*
X149384873Y-105450000D01*
X149384873Y-105050000D01*
X149363188Y-104940984D01*
X149302395Y-104850000D01*
X149363188Y-104759016D01*
X149384873Y-104650000D01*
X149384873Y-104250000D01*
X149363188Y-104140984D01*
X149302395Y-104050000D01*
X149363188Y-103959016D01*
X149384873Y-103850000D01*
X149384873Y-103450000D01*
X149615127Y-103450000D01*
X149615127Y-103850000D01*
X149636812Y-103959016D01*
X149697605Y-104050000D01*
X149636812Y-104140984D01*
X149615127Y-104250000D01*
X149615127Y-104650000D01*
X149636812Y-104759016D01*
X149697605Y-104850000D01*
X149636812Y-104940984D01*
X149615127Y-105050000D01*
X149615127Y-105450000D01*
X149636812Y-105559016D01*
X149697605Y-105650000D01*
X149636812Y-105740984D01*
X149615127Y-105850000D01*
X149615127Y-106250000D01*
X149636812Y-106359016D01*
X149698564Y-106451436D01*
X149790984Y-106513188D01*
X149900000Y-106534873D01*
X150800000Y-106534873D01*
X150909016Y-106513188D01*
X150955992Y-106481800D01*
X151071143Y-106481800D01*
X155864602Y-111275260D01*
X155888690Y-111311310D01*
X155924740Y-111335398D01*
X155924741Y-111335399D01*
X156022073Y-111400434D01*
X156031520Y-111406746D01*
X156157474Y-111431800D01*
X156157477Y-111431800D01*
X156199999Y-111440258D01*
X156242521Y-111431800D01*
X157318127Y-111431800D01*
X157318127Y-111698500D01*
X157339812Y-111807516D01*
X157401564Y-111899936D01*
X157493984Y-111961688D01*
X157603000Y-111983373D01*
X158492000Y-111983373D01*
X158601016Y-111961688D01*
X158693436Y-111899936D01*
X158755188Y-111807516D01*
X158776873Y-111698500D01*
X158776873Y-111209550D01*
X159177800Y-111209550D01*
X159177800Y-111764181D01*
X159228070Y-111885543D01*
X159320957Y-111978430D01*
X159442319Y-112028700D01*
X159742950Y-112028700D01*
X159825500Y-111946150D01*
X159825500Y-111127000D01*
X160079500Y-111127000D01*
X160079500Y-111946150D01*
X160162050Y-112028700D01*
X160462681Y-112028700D01*
X160584043Y-111978430D01*
X160676930Y-111885543D01*
X160727200Y-111764181D01*
X160727200Y-111209550D01*
X160644650Y-111127000D01*
X160079500Y-111127000D01*
X159825500Y-111127000D01*
X159260350Y-111127000D01*
X159177800Y-111209550D01*
X158776873Y-111209550D01*
X158776873Y-110301500D01*
X158763809Y-110235819D01*
X159177800Y-110235819D01*
X159177800Y-110790450D01*
X159260350Y-110873000D01*
X159825500Y-110873000D01*
X159825500Y-110053850D01*
X160079500Y-110053850D01*
X160079500Y-110873000D01*
X160644650Y-110873000D01*
X160727200Y-110790450D01*
X160727200Y-110235819D01*
X160676930Y-110114457D01*
X160584043Y-110021570D01*
X160462681Y-109971300D01*
X160162050Y-109971300D01*
X160079500Y-110053850D01*
X159825500Y-110053850D01*
X159742950Y-109971300D01*
X159442319Y-109971300D01*
X159320957Y-110021570D01*
X159228070Y-110114457D01*
X159177800Y-110235819D01*
X158763809Y-110235819D01*
X158755188Y-110192484D01*
X158693436Y-110100064D01*
X158601016Y-110038312D01*
X158492000Y-110016627D01*
X157603000Y-110016627D01*
X157493984Y-110038312D01*
X157401564Y-110100064D01*
X157339812Y-110192484D01*
X157318127Y-110301500D01*
X157318127Y-110568200D01*
X156378858Y-110568200D01*
X155250764Y-109440106D01*
X155292522Y-109431800D01*
X161121143Y-109431800D01*
X162318127Y-110628784D01*
X162318127Y-111698500D01*
X162339812Y-111807516D01*
X162401564Y-111899936D01*
X162493984Y-111961688D01*
X162603000Y-111983373D01*
X163492000Y-111983373D01*
X163601016Y-111961688D01*
X163693436Y-111899936D01*
X163755188Y-111807516D01*
X163776873Y-111698500D01*
X163776873Y-111209550D01*
X164177800Y-111209550D01*
X164177800Y-111764181D01*
X164228070Y-111885543D01*
X164320957Y-111978430D01*
X164442319Y-112028700D01*
X164742950Y-112028700D01*
X164825500Y-111946150D01*
X164825500Y-111127000D01*
X165079500Y-111127000D01*
X165079500Y-111946150D01*
X165162050Y-112028700D01*
X165462681Y-112028700D01*
X165584043Y-111978430D01*
X165676930Y-111885543D01*
X165727200Y-111764181D01*
X165727200Y-111209550D01*
X165644650Y-111127000D01*
X165079500Y-111127000D01*
X164825500Y-111127000D01*
X164260350Y-111127000D01*
X164177800Y-111209550D01*
X163776873Y-111209550D01*
X163776873Y-110301500D01*
X163763809Y-110235819D01*
X164177800Y-110235819D01*
X164177800Y-110790450D01*
X164260350Y-110873000D01*
X164825500Y-110873000D01*
X164825500Y-110053850D01*
X165079500Y-110053850D01*
X165079500Y-110873000D01*
X165644650Y-110873000D01*
X165727200Y-110790450D01*
X165727200Y-110235819D01*
X165676930Y-110114457D01*
X165584043Y-110021570D01*
X165462681Y-109971300D01*
X165162050Y-109971300D01*
X165079500Y-110053850D01*
X164825500Y-110053850D01*
X164742950Y-109971300D01*
X164442319Y-109971300D01*
X164320957Y-110021570D01*
X164228070Y-110114457D01*
X164177800Y-110235819D01*
X163763809Y-110235819D01*
X163755188Y-110192484D01*
X163693436Y-110100064D01*
X163601016Y-110038312D01*
X163492000Y-110016627D01*
X162927284Y-110016627D01*
X161635400Y-108724743D01*
X161611310Y-108688690D01*
X161468480Y-108593254D01*
X161342526Y-108568200D01*
X161342522Y-108568200D01*
X161300000Y-108559742D01*
X161257478Y-108568200D01*
X155428858Y-108568200D01*
X154300765Y-107440107D01*
X154342526Y-107431800D01*
X157318127Y-107431800D01*
X157318127Y-107698500D01*
X157339812Y-107807516D01*
X157401564Y-107899936D01*
X157493984Y-107961688D01*
X157603000Y-107983373D01*
X158492000Y-107983373D01*
X158601016Y-107961688D01*
X158693436Y-107899936D01*
X158755188Y-107807516D01*
X158776873Y-107698500D01*
X158776873Y-107209550D01*
X159177800Y-107209550D01*
X159177800Y-107764181D01*
X159228070Y-107885543D01*
X159320957Y-107978430D01*
X159442319Y-108028700D01*
X159742950Y-108028700D01*
X159825500Y-107946150D01*
X159825500Y-107127000D01*
X160079500Y-107127000D01*
X160079500Y-107946150D01*
X160162050Y-108028700D01*
X160462681Y-108028700D01*
X160584043Y-107978430D01*
X160676930Y-107885543D01*
X160727200Y-107764181D01*
X160727200Y-107209550D01*
X160644650Y-107127000D01*
X160079500Y-107127000D01*
X159825500Y-107127000D01*
X159260350Y-107127000D01*
X159177800Y-107209550D01*
X158776873Y-107209550D01*
X158776873Y-106301500D01*
X158763809Y-106235819D01*
X159177800Y-106235819D01*
X159177800Y-106790450D01*
X159260350Y-106873000D01*
X159825500Y-106873000D01*
X159825500Y-106053850D01*
X160079500Y-106053850D01*
X160079500Y-106873000D01*
X160644650Y-106873000D01*
X160727200Y-106790450D01*
X160727200Y-106235819D01*
X160676930Y-106114457D01*
X160584043Y-106021570D01*
X160462681Y-105971300D01*
X160162050Y-105971300D01*
X160079500Y-106053850D01*
X159825500Y-106053850D01*
X159742950Y-105971300D01*
X159442319Y-105971300D01*
X159320957Y-106021570D01*
X159228070Y-106114457D01*
X159177800Y-106235819D01*
X158763809Y-106235819D01*
X158755188Y-106192484D01*
X158693436Y-106100064D01*
X158601016Y-106038312D01*
X158492000Y-106016627D01*
X157603000Y-106016627D01*
X157493984Y-106038312D01*
X157401564Y-106100064D01*
X157339812Y-106192484D01*
X157318127Y-106301500D01*
X157318127Y-106568200D01*
X154478857Y-106568200D01*
X153350763Y-105440106D01*
X153392520Y-105431800D01*
X161121143Y-105431800D01*
X162318127Y-106628784D01*
X162318127Y-107698500D01*
X162339812Y-107807516D01*
X162401564Y-107899936D01*
X162493984Y-107961688D01*
X162603000Y-107983373D01*
X163492000Y-107983373D01*
X163601016Y-107961688D01*
X163693436Y-107899936D01*
X163755188Y-107807516D01*
X163776873Y-107698500D01*
X163776873Y-107209550D01*
X164177800Y-107209550D01*
X164177800Y-107764181D01*
X164228070Y-107885543D01*
X164320957Y-107978430D01*
X164442319Y-108028700D01*
X164742950Y-108028700D01*
X164825500Y-107946150D01*
X164825500Y-107127000D01*
X165079500Y-107127000D01*
X165079500Y-107946150D01*
X165162050Y-108028700D01*
X165462681Y-108028700D01*
X165584043Y-107978430D01*
X165676930Y-107885543D01*
X165727200Y-107764181D01*
X165727200Y-107209550D01*
X165644650Y-107127000D01*
X165079500Y-107127000D01*
X164825500Y-107127000D01*
X164260350Y-107127000D01*
X164177800Y-107209550D01*
X163776873Y-107209550D01*
X163776873Y-106301500D01*
X163763809Y-106235819D01*
X164177800Y-106235819D01*
X164177800Y-106790450D01*
X164260350Y-106873000D01*
X164825500Y-106873000D01*
X164825500Y-106053850D01*
X165079500Y-106053850D01*
X165079500Y-106873000D01*
X165644650Y-106873000D01*
X165727200Y-106790450D01*
X165727200Y-106235819D01*
X165676930Y-106114457D01*
X165584043Y-106021570D01*
X165462681Y-105971300D01*
X165162050Y-105971300D01*
X165079500Y-106053850D01*
X164825500Y-106053850D01*
X164742950Y-105971300D01*
X164442319Y-105971300D01*
X164320957Y-106021570D01*
X164228070Y-106114457D01*
X164177800Y-106235819D01*
X163763809Y-106235819D01*
X163755188Y-106192484D01*
X163693436Y-106100064D01*
X163601016Y-106038312D01*
X163492000Y-106016627D01*
X162927284Y-106016627D01*
X161635399Y-104724742D01*
X161611310Y-104688690D01*
X161468480Y-104593254D01*
X161342526Y-104568200D01*
X161342522Y-104568200D01*
X161300000Y-104559742D01*
X161257478Y-104568200D01*
X153528857Y-104568200D01*
X152335399Y-103374742D01*
X152311310Y-103338690D01*
X152168480Y-103243254D01*
X152042526Y-103218200D01*
X152042522Y-103218200D01*
X152000000Y-103209742D01*
X151957478Y-103218200D01*
X150955992Y-103218200D01*
X150909016Y-103186812D01*
X150800000Y-103165127D01*
X149900000Y-103165127D01*
X149790984Y-103186812D01*
X149698564Y-103248564D01*
X149636812Y-103340984D01*
X149615127Y-103450000D01*
X149384873Y-103450000D01*
X149363188Y-103340984D01*
X149301436Y-103248564D01*
X149209016Y-103186812D01*
X149100000Y-103165127D01*
X148200000Y-103165127D01*
X148090984Y-103186812D01*
X148044008Y-103218200D01*
X147648857Y-103218200D01*
X147580400Y-103149743D01*
X147556310Y-103113690D01*
X147535821Y-103100000D01*
X147556310Y-103086310D01*
X147580400Y-103050257D01*
X147648857Y-102981800D01*
X148044008Y-102981800D01*
X148090984Y-103013188D01*
X148200000Y-103034873D01*
X149100000Y-103034873D01*
X149209016Y-103013188D01*
X149301436Y-102951436D01*
X149363188Y-102859016D01*
X149384873Y-102750000D01*
X149384873Y-102350000D01*
X149363188Y-102240984D01*
X149302395Y-102150000D01*
X149363188Y-102059016D01*
X149384873Y-101950000D01*
X149384873Y-101550000D01*
X149363188Y-101440984D01*
X149302395Y-101350000D01*
X149363188Y-101259016D01*
X149384873Y-101150000D01*
X149384873Y-100750000D01*
X149363188Y-100640984D01*
X149302395Y-100550000D01*
X149363188Y-100459016D01*
X149384873Y-100350000D01*
X149384873Y-99950000D01*
X149615127Y-99950000D01*
X149615127Y-100350000D01*
X149636812Y-100459016D01*
X149697605Y-100550000D01*
X149636812Y-100640984D01*
X149615127Y-100750000D01*
X149615127Y-101150000D01*
X149636812Y-101259016D01*
X149697605Y-101350000D01*
X149636812Y-101440984D01*
X149615127Y-101550000D01*
X149615127Y-101950000D01*
X149636812Y-102059016D01*
X149697605Y-102150000D01*
X149636812Y-102240984D01*
X149615127Y-102350000D01*
X149615127Y-102750000D01*
X149636812Y-102859016D01*
X149698564Y-102951436D01*
X149790984Y-103013188D01*
X149900000Y-103034873D01*
X150800000Y-103034873D01*
X150909016Y-103013188D01*
X150955992Y-102981800D01*
X152071143Y-102981800D01*
X152364602Y-103275260D01*
X152388690Y-103311310D01*
X152424740Y-103335398D01*
X152424741Y-103335399D01*
X152513344Y-103394601D01*
X152531520Y-103406746D01*
X152657474Y-103431800D01*
X152657477Y-103431800D01*
X152699999Y-103440258D01*
X152742521Y-103431800D01*
X157318127Y-103431800D01*
X157318127Y-103698500D01*
X157339812Y-103807516D01*
X157401564Y-103899936D01*
X157493984Y-103961688D01*
X157603000Y-103983373D01*
X158492000Y-103983373D01*
X158601016Y-103961688D01*
X158693436Y-103899936D01*
X158755188Y-103807516D01*
X158776873Y-103698500D01*
X158776873Y-103209550D01*
X159177800Y-103209550D01*
X159177800Y-103764181D01*
X159228070Y-103885543D01*
X159320957Y-103978430D01*
X159442319Y-104028700D01*
X159742950Y-104028700D01*
X159825500Y-103946150D01*
X159825500Y-103127000D01*
X160079500Y-103127000D01*
X160079500Y-103946150D01*
X160162050Y-104028700D01*
X160462681Y-104028700D01*
X160584043Y-103978430D01*
X160676930Y-103885543D01*
X160727200Y-103764181D01*
X160727200Y-103209550D01*
X160644650Y-103127000D01*
X160079500Y-103127000D01*
X159825500Y-103127000D01*
X159260350Y-103127000D01*
X159177800Y-103209550D01*
X158776873Y-103209550D01*
X158776873Y-102301500D01*
X158763809Y-102235819D01*
X159177800Y-102235819D01*
X159177800Y-102790450D01*
X159260350Y-102873000D01*
X159825500Y-102873000D01*
X159825500Y-102053850D01*
X160079500Y-102053850D01*
X160079500Y-102873000D01*
X160644650Y-102873000D01*
X160727200Y-102790450D01*
X160727200Y-102235819D01*
X160676930Y-102114457D01*
X160584043Y-102021570D01*
X160462681Y-101971300D01*
X160162050Y-101971300D01*
X160079500Y-102053850D01*
X159825500Y-102053850D01*
X159742950Y-101971300D01*
X159442319Y-101971300D01*
X159320957Y-102021570D01*
X159228070Y-102114457D01*
X159177800Y-102235819D01*
X158763809Y-102235819D01*
X158755188Y-102192484D01*
X158693436Y-102100064D01*
X158601016Y-102038312D01*
X158492000Y-102016627D01*
X157603000Y-102016627D01*
X157493984Y-102038312D01*
X157401564Y-102100064D01*
X157339812Y-102192484D01*
X157318127Y-102301500D01*
X157318127Y-102568200D01*
X152878858Y-102568200D01*
X152585399Y-102274742D01*
X152561310Y-102238690D01*
X152428576Y-102150000D01*
X152561310Y-102061310D01*
X152585399Y-102025258D01*
X153178858Y-101431800D01*
X161121143Y-101431800D01*
X162318127Y-102628784D01*
X162318127Y-103698500D01*
X162339812Y-103807516D01*
X162401564Y-103899936D01*
X162493984Y-103961688D01*
X162603000Y-103983373D01*
X163492000Y-103983373D01*
X163601016Y-103961688D01*
X163693436Y-103899936D01*
X163755188Y-103807516D01*
X163776873Y-103698500D01*
X163776873Y-103209550D01*
X164177800Y-103209550D01*
X164177800Y-103764181D01*
X164228070Y-103885543D01*
X164320957Y-103978430D01*
X164442319Y-104028700D01*
X164742950Y-104028700D01*
X164825500Y-103946150D01*
X164825500Y-103127000D01*
X165079500Y-103127000D01*
X165079500Y-103946150D01*
X165162050Y-104028700D01*
X165462681Y-104028700D01*
X165584043Y-103978430D01*
X165676930Y-103885543D01*
X165727200Y-103764181D01*
X165727200Y-103209550D01*
X165644650Y-103127000D01*
X165079500Y-103127000D01*
X164825500Y-103127000D01*
X164260350Y-103127000D01*
X164177800Y-103209550D01*
X163776873Y-103209550D01*
X163776873Y-102301500D01*
X163763809Y-102235819D01*
X164177800Y-102235819D01*
X164177800Y-102790450D01*
X164260350Y-102873000D01*
X164825500Y-102873000D01*
X164825500Y-102053850D01*
X165079500Y-102053850D01*
X165079500Y-102873000D01*
X165644650Y-102873000D01*
X165727200Y-102790450D01*
X165727200Y-102235819D01*
X165676930Y-102114457D01*
X165584043Y-102021570D01*
X165462681Y-101971300D01*
X165162050Y-101971300D01*
X165079500Y-102053850D01*
X164825500Y-102053850D01*
X164742950Y-101971300D01*
X164442319Y-101971300D01*
X164320957Y-102021570D01*
X164228070Y-102114457D01*
X164177800Y-102235819D01*
X163763809Y-102235819D01*
X163755188Y-102192484D01*
X163693436Y-102100064D01*
X163601016Y-102038312D01*
X163492000Y-102016627D01*
X162927284Y-102016627D01*
X161635400Y-100724743D01*
X161611310Y-100688690D01*
X161468480Y-100593254D01*
X161342526Y-100568200D01*
X161342522Y-100568200D01*
X161300000Y-100559742D01*
X161257478Y-100568200D01*
X153042521Y-100568200D01*
X153000763Y-100559894D01*
X154128857Y-99431800D01*
X157318127Y-99431800D01*
X157318127Y-99698500D01*
X157339812Y-99807516D01*
X157401564Y-99899936D01*
X157493984Y-99961688D01*
X157603000Y-99983373D01*
X158492000Y-99983373D01*
X158601016Y-99961688D01*
X158693436Y-99899936D01*
X158755188Y-99807516D01*
X158776873Y-99698500D01*
X158776873Y-99209550D01*
X159177800Y-99209550D01*
X159177800Y-99764181D01*
X159228070Y-99885543D01*
X159320957Y-99978430D01*
X159442319Y-100028700D01*
X159742950Y-100028700D01*
X159825500Y-99946150D01*
X159825500Y-99127000D01*
X160079500Y-99127000D01*
X160079500Y-99946150D01*
X160162050Y-100028700D01*
X160462681Y-100028700D01*
X160584043Y-99978430D01*
X160676930Y-99885543D01*
X160727200Y-99764181D01*
X160727200Y-99209550D01*
X160644650Y-99127000D01*
X160079500Y-99127000D01*
X159825500Y-99127000D01*
X159260350Y-99127000D01*
X159177800Y-99209550D01*
X158776873Y-99209550D01*
X158776873Y-98301500D01*
X158755188Y-98192484D01*
X158748049Y-98181800D01*
X159200175Y-98181800D01*
X159177800Y-98235819D01*
X159177800Y-98790450D01*
X159260350Y-98873000D01*
X159825500Y-98873000D01*
X159825500Y-98853000D01*
X160079500Y-98853000D01*
X160079500Y-98873000D01*
X160644650Y-98873000D01*
X160727200Y-98790450D01*
X160727200Y-98235819D01*
X160704825Y-98181800D01*
X161871143Y-98181800D01*
X162318127Y-98628785D01*
X162318127Y-99698500D01*
X162339812Y-99807516D01*
X162401564Y-99899936D01*
X162493984Y-99961688D01*
X162603000Y-99983373D01*
X163492000Y-99983373D01*
X163601016Y-99961688D01*
X163693436Y-99899936D01*
X163755188Y-99807516D01*
X163776873Y-99698500D01*
X163776873Y-99209550D01*
X164177800Y-99209550D01*
X164177800Y-99764181D01*
X164228070Y-99885543D01*
X164320957Y-99978430D01*
X164442319Y-100028700D01*
X164742950Y-100028700D01*
X164825500Y-99946150D01*
X164825500Y-99127000D01*
X165079500Y-99127000D01*
X165079500Y-99946150D01*
X165162050Y-100028700D01*
X165462681Y-100028700D01*
X165584043Y-99978430D01*
X165676930Y-99885543D01*
X165727200Y-99764181D01*
X165727200Y-99209550D01*
X165644650Y-99127000D01*
X165079500Y-99127000D01*
X164825500Y-99127000D01*
X164260350Y-99127000D01*
X164177800Y-99209550D01*
X163776873Y-99209550D01*
X163776873Y-98301500D01*
X163763809Y-98235819D01*
X164177800Y-98235819D01*
X164177800Y-98790450D01*
X164260350Y-98873000D01*
X164825500Y-98873000D01*
X164825500Y-98053850D01*
X165079500Y-98053850D01*
X165079500Y-98873000D01*
X165644650Y-98873000D01*
X165727200Y-98790450D01*
X165727200Y-98235819D01*
X165676930Y-98114457D01*
X165584043Y-98021570D01*
X165462681Y-97971300D01*
X165162050Y-97971300D01*
X165079500Y-98053850D01*
X164825500Y-98053850D01*
X164742950Y-97971300D01*
X164442319Y-97971300D01*
X164320957Y-98021570D01*
X164228070Y-98114457D01*
X164177800Y-98235819D01*
X163763809Y-98235819D01*
X163755188Y-98192484D01*
X163693436Y-98100064D01*
X163601016Y-98038312D01*
X163492000Y-98016627D01*
X162927285Y-98016627D01*
X162385399Y-97474742D01*
X162361310Y-97438690D01*
X162218480Y-97343254D01*
X162092526Y-97318200D01*
X162092522Y-97318200D01*
X162050000Y-97309742D01*
X162007478Y-97318200D01*
X154192526Y-97318200D01*
X154150000Y-97309741D01*
X154107474Y-97318200D01*
X153981520Y-97343254D01*
X153838690Y-97438690D01*
X153814600Y-97474743D01*
X151571143Y-99718200D01*
X150955992Y-99718200D01*
X150909016Y-99686812D01*
X150800000Y-99665127D01*
X149900000Y-99665127D01*
X149790984Y-99686812D01*
X149698564Y-99748564D01*
X149636812Y-99840984D01*
X149615127Y-99950000D01*
X149384873Y-99950000D01*
X149363188Y-99840984D01*
X149301436Y-99748564D01*
X149209016Y-99686812D01*
X149100000Y-99665127D01*
X148200000Y-99665127D01*
X148090984Y-99686812D01*
X148044008Y-99718200D01*
X147542521Y-99718200D01*
X147499999Y-99709742D01*
X147457477Y-99718200D01*
X147457474Y-99718200D01*
X147401279Y-99729378D01*
X147525256Y-99605401D01*
X147561310Y-99581310D01*
X147656746Y-99438480D01*
X147681800Y-99312526D01*
X147681800Y-99312522D01*
X147690258Y-99270001D01*
X147681800Y-99227480D01*
X147681800Y-98542520D01*
X147690258Y-98499999D01*
X147681800Y-98457478D01*
X147681800Y-98457474D01*
X147656746Y-98331520D01*
X147561310Y-98188690D01*
X147525255Y-98164599D01*
X147335400Y-97974743D01*
X147311310Y-97938690D01*
X147168480Y-97843254D01*
X147042526Y-97818200D01*
X147042522Y-97818200D01*
X147000000Y-97809742D01*
X146957478Y-97818200D01*
X146323139Y-97818200D01*
X146272936Y-97743064D01*
X146180516Y-97681312D01*
X146071500Y-97659627D01*
X144928500Y-97659627D01*
X144819484Y-97681312D01*
X144727064Y-97743064D01*
X144702785Y-97779400D01*
X143865527Y-97779400D01*
X143817999Y-97769946D01*
X143770471Y-97779400D01*
X143629699Y-97807401D01*
X143470065Y-97914065D01*
X143443140Y-97954361D01*
X142192362Y-99205140D01*
X142152066Y-99232065D01*
X142059005Y-99371341D01*
X142045402Y-99391699D01*
X142007946Y-99580000D01*
X142017401Y-99627533D01*
X142017400Y-107820100D01*
X139267602Y-110569900D01*
X139225794Y-110569900D01*
X139211688Y-110498984D01*
X139149936Y-110406564D01*
X139057516Y-110344812D01*
X138948500Y-110323127D01*
X137551500Y-110323127D01*
X137442484Y-110344812D01*
X137350064Y-110406564D01*
X137288312Y-110498984D01*
X137266627Y-110608000D01*
X137266627Y-110790606D01*
X137232472Y-110797400D01*
X137232471Y-110797400D01*
X137148701Y-110814063D01*
X137082235Y-110653601D01*
X136736399Y-110307765D01*
X136284543Y-110120600D01*
X135795457Y-110120600D01*
X135343601Y-110307765D01*
X134997765Y-110653601D01*
X134909206Y-110867400D01*
X134630794Y-110867400D01*
X134542235Y-110653601D01*
X134196399Y-110307765D01*
X133744543Y-110120600D01*
X133255457Y-110120600D01*
X132803601Y-110307765D01*
X132457765Y-110653601D01*
X132270600Y-111105457D01*
X129804400Y-111105457D01*
X129804400Y-109759728D01*
X132729877Y-109759728D01*
X132839161Y-109935633D01*
X133320225Y-110102842D01*
X133828659Y-110073226D01*
X134160839Y-109935633D01*
X134270123Y-109759728D01*
X135269877Y-109759728D01*
X135379161Y-109935633D01*
X135860225Y-110102842D01*
X136368659Y-110073226D01*
X136700839Y-109935633D01*
X136810123Y-109759728D01*
X136040000Y-108989605D01*
X135269877Y-109759728D01*
X134270123Y-109759728D01*
X133500000Y-108989605D01*
X132729877Y-109759728D01*
X129804400Y-109759728D01*
X129804400Y-108630225D01*
X132207158Y-108630225D01*
X132236774Y-109138659D01*
X132374367Y-109470839D01*
X132550272Y-109580123D01*
X133320395Y-108810000D01*
X132550272Y-108039877D01*
X132374367Y-108149161D01*
X132207158Y-108630225D01*
X129804400Y-108630225D01*
X129804400Y-107860272D01*
X132729877Y-107860272D01*
X133500000Y-108630395D01*
X134270123Y-107860272D01*
X134160839Y-107684367D01*
X133679775Y-107517158D01*
X133171341Y-107546774D01*
X132839161Y-107684367D01*
X132729877Y-107860272D01*
X129804400Y-107860272D01*
X129804400Y-98405457D01*
X132270600Y-98405457D01*
X132270600Y-98894543D01*
X132457765Y-99346399D01*
X132803601Y-99692235D01*
X133255457Y-99879400D01*
X133744543Y-99879400D01*
X134009142Y-99769799D01*
X134434600Y-100195257D01*
X134458690Y-100231310D01*
X134601520Y-100326746D01*
X134727474Y-100351800D01*
X134727477Y-100351800D01*
X134769999Y-100360258D01*
X134812521Y-100351800D01*
X135139566Y-100351800D01*
X134997765Y-100493601D01*
X134810600Y-100945457D01*
X134810600Y-101434543D01*
X134997765Y-101886399D01*
X135139566Y-102028200D01*
X134948857Y-102028200D01*
X134619799Y-101699142D01*
X134729400Y-101434543D01*
X134729400Y-100945457D01*
X134542235Y-100493601D01*
X134196399Y-100147765D01*
X133744543Y-99960600D01*
X133255457Y-99960600D01*
X132803601Y-100147765D01*
X132457765Y-100493601D01*
X132270600Y-100945457D01*
X132270600Y-101434543D01*
X132457765Y-101886399D01*
X132803601Y-102232235D01*
X133255457Y-102419400D01*
X133744543Y-102419400D01*
X134009142Y-102309799D01*
X134434600Y-102735257D01*
X134458690Y-102771310D01*
X134601520Y-102866746D01*
X134727474Y-102891800D01*
X134727477Y-102891800D01*
X134769999Y-102900258D01*
X134812521Y-102891800D01*
X135139566Y-102891800D01*
X134997765Y-103033601D01*
X134810600Y-103485457D01*
X134810600Y-103974543D01*
X134997765Y-104426399D01*
X135139566Y-104568200D01*
X134948857Y-104568200D01*
X134619799Y-104239142D01*
X134729400Y-103974543D01*
X134729400Y-103485457D01*
X134542235Y-103033601D01*
X134196399Y-102687765D01*
X133744543Y-102500600D01*
X133255457Y-102500600D01*
X132803601Y-102687765D01*
X132457765Y-103033601D01*
X132270600Y-103485457D01*
X132270600Y-103974543D01*
X132457765Y-104426399D01*
X132803601Y-104772235D01*
X133255457Y-104959400D01*
X133744543Y-104959400D01*
X134009142Y-104849799D01*
X134434600Y-105275257D01*
X134458690Y-105311310D01*
X134601520Y-105406746D01*
X134727474Y-105431800D01*
X134727477Y-105431800D01*
X134769999Y-105440258D01*
X134812521Y-105431800D01*
X135139566Y-105431800D01*
X134997765Y-105573601D01*
X134810600Y-106025457D01*
X134810600Y-106514543D01*
X134997765Y-106966399D01*
X135139566Y-107108200D01*
X134948857Y-107108200D01*
X134619799Y-106779142D01*
X134729400Y-106514543D01*
X134729400Y-106025457D01*
X134542235Y-105573601D01*
X134196399Y-105227765D01*
X133744543Y-105040600D01*
X133255457Y-105040600D01*
X132803601Y-105227765D01*
X132457765Y-105573601D01*
X132270600Y-106025457D01*
X132270600Y-106514543D01*
X132457765Y-106966399D01*
X132803601Y-107312235D01*
X133255457Y-107499400D01*
X133744543Y-107499400D01*
X134009142Y-107389799D01*
X134434600Y-107815257D01*
X134458690Y-107851310D01*
X134601520Y-107946746D01*
X134727474Y-107971800D01*
X134727477Y-107971800D01*
X134769999Y-107980258D01*
X134812521Y-107971800D01*
X135035772Y-107971800D01*
X135028982Y-107978590D01*
X135090270Y-108039878D01*
X134914367Y-108149161D01*
X134768347Y-108569263D01*
X134763226Y-108481341D01*
X134625633Y-108149161D01*
X134449728Y-108039877D01*
X133679605Y-108810000D01*
X134449728Y-109580123D01*
X134625633Y-109470839D01*
X134771653Y-109050737D01*
X134776774Y-109138659D01*
X134914367Y-109470839D01*
X135090272Y-109580123D01*
X135860395Y-108810000D01*
X135846253Y-108795858D01*
X136025858Y-108616253D01*
X136040000Y-108630395D01*
X136054143Y-108616253D01*
X136233748Y-108795858D01*
X136219605Y-108810000D01*
X136989728Y-109580123D01*
X137165633Y-109470839D01*
X137233876Y-109274502D01*
X137303848Y-109274502D01*
X137221300Y-109357050D01*
X137221300Y-109657681D01*
X137271570Y-109779043D01*
X137364457Y-109871930D01*
X137485819Y-109922200D01*
X138040450Y-109922200D01*
X138123000Y-109839650D01*
X138123000Y-109274500D01*
X138377000Y-109274500D01*
X138377000Y-109839650D01*
X138459550Y-109922200D01*
X139014181Y-109922200D01*
X139135543Y-109871930D01*
X139228430Y-109779043D01*
X139278700Y-109657681D01*
X139278700Y-109357050D01*
X139196150Y-109274500D01*
X138377000Y-109274500D01*
X138123000Y-109274500D01*
X138103000Y-109274500D01*
X138103000Y-109020500D01*
X138123000Y-109020500D01*
X138123000Y-108455350D01*
X138377000Y-108455350D01*
X138377000Y-109020500D01*
X139196150Y-109020500D01*
X139278700Y-108937950D01*
X139278700Y-108637319D01*
X139228430Y-108515957D01*
X139135543Y-108423070D01*
X139014181Y-108372800D01*
X138459550Y-108372800D01*
X138377000Y-108455350D01*
X138123000Y-108455350D01*
X138040450Y-108372800D01*
X137485819Y-108372800D01*
X137364457Y-108423070D01*
X137303389Y-108484138D01*
X137303226Y-108481341D01*
X137165633Y-108149161D01*
X136989730Y-108039878D01*
X137051018Y-107978590D01*
X137050581Y-107978153D01*
X137082522Y-107971800D01*
X137082526Y-107971800D01*
X137208480Y-107946746D01*
X137351310Y-107851310D01*
X137375399Y-107815258D01*
X138425261Y-106765397D01*
X138461310Y-106741310D01*
X138504451Y-106676746D01*
X138556746Y-106598480D01*
X138556746Y-106598479D01*
X138581800Y-106472526D01*
X138581800Y-106472523D01*
X138590258Y-106430001D01*
X138581800Y-106387479D01*
X138581800Y-105857600D01*
X139318650Y-105857600D01*
X139401200Y-105775050D01*
X139401200Y-105451200D01*
X139655200Y-105451200D01*
X139655200Y-105775050D01*
X139737750Y-105857600D01*
X140484151Y-105857600D01*
X140605513Y-105807330D01*
X140698400Y-105714443D01*
X140748670Y-105593081D01*
X140748670Y-105533750D01*
X140666120Y-105451200D01*
X139655200Y-105451200D01*
X139401200Y-105451200D01*
X139381200Y-105451200D01*
X139381200Y-105298800D01*
X139401200Y-105298800D01*
X139401200Y-105228000D01*
X139655200Y-105228000D01*
X139655200Y-105298800D01*
X140666120Y-105298800D01*
X140748670Y-105216250D01*
X140748670Y-105156919D01*
X140698400Y-105035557D01*
X140670204Y-105007361D01*
X140684198Y-104986416D01*
X140705883Y-104877400D01*
X140705883Y-104572600D01*
X140684198Y-104463584D01*
X140641713Y-104400000D01*
X140684198Y-104336416D01*
X140705883Y-104227400D01*
X140705883Y-103922600D01*
X140684198Y-103813584D01*
X140641713Y-103750000D01*
X140684198Y-103686416D01*
X140705883Y-103577400D01*
X140705883Y-103272600D01*
X140684198Y-103163584D01*
X140641713Y-103100000D01*
X140684198Y-103036416D01*
X140705883Y-102927400D01*
X140705883Y-102622600D01*
X140684198Y-102513584D01*
X140641713Y-102450000D01*
X140684198Y-102386416D01*
X140705883Y-102277400D01*
X140705883Y-101972600D01*
X140684198Y-101863584D01*
X140641713Y-101800000D01*
X140684198Y-101736416D01*
X140705883Y-101627400D01*
X140705883Y-101322600D01*
X140684198Y-101213584D01*
X140641713Y-101150000D01*
X140684198Y-101086416D01*
X140705883Y-100977400D01*
X140705883Y-100672600D01*
X140684198Y-100563584D01*
X140641713Y-100500000D01*
X140684198Y-100436416D01*
X140705883Y-100327400D01*
X140705883Y-100022600D01*
X140684198Y-99913584D01*
X140670204Y-99892639D01*
X140698400Y-99864443D01*
X140748670Y-99743081D01*
X140748670Y-99683750D01*
X140666120Y-99601200D01*
X139655200Y-99601200D01*
X139655200Y-99672000D01*
X139401200Y-99672000D01*
X139401200Y-99601200D01*
X138390280Y-99601200D01*
X138311069Y-99680411D01*
X138121800Y-99491143D01*
X138121800Y-99306919D01*
X138307730Y-99306919D01*
X138307730Y-99366250D01*
X138390280Y-99448800D01*
X139401200Y-99448800D01*
X139401200Y-99124950D01*
X139655200Y-99124950D01*
X139655200Y-99448800D01*
X140666120Y-99448800D01*
X140748670Y-99366250D01*
X140748670Y-99306919D01*
X140698400Y-99185557D01*
X140605513Y-99092670D01*
X140484151Y-99042400D01*
X139737750Y-99042400D01*
X139655200Y-99124950D01*
X139401200Y-99124950D01*
X139318650Y-99042400D01*
X138572249Y-99042400D01*
X138450887Y-99092670D01*
X138358000Y-99185557D01*
X138307730Y-99306919D01*
X138121800Y-99306919D01*
X138121800Y-99122522D01*
X138130258Y-99080000D01*
X138121800Y-99037478D01*
X138121800Y-99037474D01*
X138096746Y-98911520D01*
X138071008Y-98873000D01*
X138025399Y-98804741D01*
X138025398Y-98804740D01*
X138001310Y-98768690D01*
X137965261Y-98744603D01*
X137595399Y-98374742D01*
X137571310Y-98338690D01*
X137428480Y-98243254D01*
X137324873Y-98222645D01*
X137324873Y-97700000D01*
X137303188Y-97590984D01*
X137241436Y-97498564D01*
X137149016Y-97436812D01*
X137040000Y-97415127D01*
X135040000Y-97415127D01*
X134930984Y-97436812D01*
X134838564Y-97498564D01*
X134776812Y-97590984D01*
X134755127Y-97700000D01*
X134755127Y-99294470D01*
X134619799Y-99159142D01*
X134729400Y-98894543D01*
X134729400Y-98405457D01*
X134542235Y-97953601D01*
X134196399Y-97607765D01*
X133744543Y-97420600D01*
X133255457Y-97420600D01*
X132803601Y-97607765D01*
X132457765Y-97953601D01*
X132270600Y-98405457D01*
X129804400Y-98405457D01*
X129804400Y-97227000D01*
X143000000Y-97227000D01*
X143048601Y-97217333D01*
X143089803Y-97189803D01*
X143117333Y-97148601D01*
X143127000Y-97100000D01*
X143127000Y-96947550D01*
X144598300Y-96947550D01*
X144598300Y-97121181D01*
X144648570Y-97242543D01*
X144741457Y-97335430D01*
X144862819Y-97385700D01*
X145290450Y-97385700D01*
X145373000Y-97303150D01*
X145373000Y-96865000D01*
X145627000Y-96865000D01*
X145627000Y-97303150D01*
X145709550Y-97385700D01*
X146137181Y-97385700D01*
X146258543Y-97335430D01*
X146351430Y-97242543D01*
X146401700Y-97121181D01*
X146401700Y-96947550D01*
X146319150Y-96865000D01*
X145627000Y-96865000D01*
X145373000Y-96865000D01*
X144680850Y-96865000D01*
X144598300Y-96947550D01*
X143127000Y-96947550D01*
X143127000Y-96354819D01*
X144598300Y-96354819D01*
X144598300Y-96528450D01*
X144680850Y-96611000D01*
X145373000Y-96611000D01*
X145373000Y-96172850D01*
X145627000Y-96172850D01*
X145627000Y-96611000D01*
X146319150Y-96611000D01*
X146401700Y-96528450D01*
X146401700Y-96354819D01*
X146351430Y-96233457D01*
X146258543Y-96140570D01*
X146137181Y-96090300D01*
X145709550Y-96090300D01*
X145627000Y-96172850D01*
X145373000Y-96172850D01*
X145290450Y-96090300D01*
X144862819Y-96090300D01*
X144741457Y-96140570D01*
X144648570Y-96233457D01*
X144598300Y-96354819D01*
X143127000Y-96354819D01*
X143127000Y-95194400D01*
X167195600Y-95194400D01*
X167195601Y-114805600D01*
X167195601Y-114805600D01*
G37*
X167195601Y-114805600D02*
X140627000Y-114805600D01*
X140627000Y-113000000D01*
X140617333Y-112951399D01*
X140589803Y-112910197D01*
X140548601Y-112882667D01*
X140500000Y-112873000D01*
X129804400Y-112873000D01*
X129804400Y-111105457D01*
X132270600Y-111105457D01*
X132270600Y-111594543D01*
X132457765Y-112046399D01*
X132803601Y-112392235D01*
X133255457Y-112579400D01*
X133744543Y-112579400D01*
X134196399Y-112392235D01*
X134542235Y-112046399D01*
X134630794Y-111832600D01*
X134909206Y-111832600D01*
X134997765Y-112046399D01*
X135343601Y-112392235D01*
X135795457Y-112579400D01*
X136284543Y-112579400D01*
X136736399Y-112392235D01*
X137082235Y-112046399D01*
X137170160Y-111834129D01*
X137210000Y-111842054D01*
X137257528Y-111832600D01*
X137257529Y-111832600D01*
X137398301Y-111804599D01*
X137459655Y-111763604D01*
X137551500Y-111781873D01*
X138948500Y-111781873D01*
X139057516Y-111760188D01*
X139149936Y-111698436D01*
X139211688Y-111606016D01*
X139225794Y-111535100D01*
X139419972Y-111535100D01*
X139467500Y-111544554D01*
X139515028Y-111535100D01*
X139515029Y-111535100D01*
X139655801Y-111507099D01*
X139815435Y-111400435D01*
X139842362Y-111360136D01*
X142807643Y-108394857D01*
X142847935Y-108367935D01*
X142954599Y-108208301D01*
X142982600Y-108067529D01*
X142982600Y-108067528D01*
X142992054Y-108020000D01*
X142982600Y-107972471D01*
X142982600Y-99779898D01*
X144017899Y-98744600D01*
X144702785Y-98744600D01*
X144727064Y-98780936D01*
X144819484Y-98842688D01*
X144928500Y-98864373D01*
X146071500Y-98864373D01*
X146180516Y-98842688D01*
X146272936Y-98780936D01*
X146334688Y-98688516D01*
X146336024Y-98681800D01*
X146818201Y-98681800D01*
X146818200Y-99088200D01*
X146607474Y-99088200D01*
X146481520Y-99113254D01*
X146476007Y-99116937D01*
X146468546Y-99111952D01*
X146359530Y-99090267D01*
X144578990Y-99090267D01*
X144469974Y-99111952D01*
X144377554Y-99173704D01*
X144315802Y-99266124D01*
X144294117Y-99375140D01*
X144294117Y-99674860D01*
X144315802Y-99783876D01*
X144330814Y-99806343D01*
X144299060Y-99838097D01*
X144248790Y-99959459D01*
X144248790Y-100017520D01*
X144331340Y-100100070D01*
X145342260Y-100100070D01*
X145342260Y-100028000D01*
X145596260Y-100028000D01*
X145596260Y-100100070D01*
X146607180Y-100100070D01*
X146689730Y-100017520D01*
X146689730Y-99959459D01*
X146686558Y-99951800D01*
X146957478Y-99951800D01*
X147000000Y-99960258D01*
X147042522Y-99951800D01*
X147042526Y-99951800D01*
X147098720Y-99940622D01*
X146689730Y-100349613D01*
X146689730Y-100332480D01*
X146607180Y-100249930D01*
X145596260Y-100249930D01*
X145596260Y-100322000D01*
X145342260Y-100322000D01*
X145342260Y-100249930D01*
X144331340Y-100249930D01*
X144248790Y-100332480D01*
X144248790Y-100390541D01*
X144299060Y-100511903D01*
X144330814Y-100543657D01*
X144315802Y-100566124D01*
X144294117Y-100675140D01*
X144294117Y-100974860D01*
X144315802Y-101083876D01*
X144359984Y-101150000D01*
X144315802Y-101216124D01*
X144294117Y-101325140D01*
X144294117Y-101624860D01*
X144315802Y-101733876D01*
X144359984Y-101800000D01*
X144315802Y-101866124D01*
X144294117Y-101975140D01*
X144294117Y-102274860D01*
X144315802Y-102383876D01*
X144359984Y-102450000D01*
X144315802Y-102516124D01*
X144294117Y-102625140D01*
X144294117Y-102924860D01*
X144315802Y-103033876D01*
X144359984Y-103100000D01*
X144315802Y-103166124D01*
X144294117Y-103275140D01*
X144294117Y-103574860D01*
X144315802Y-103683876D01*
X144359984Y-103750000D01*
X144315802Y-103816124D01*
X144294117Y-103925140D01*
X144294117Y-104224860D01*
X144315802Y-104333876D01*
X144359984Y-104400000D01*
X144315802Y-104466124D01*
X144294117Y-104575140D01*
X144294117Y-104874860D01*
X144315802Y-104983876D01*
X144359135Y-105048730D01*
X144315802Y-105113584D01*
X144294117Y-105222600D01*
X144294117Y-105527400D01*
X144315802Y-105636416D01*
X144377554Y-105728836D01*
X144469974Y-105790588D01*
X144578990Y-105812273D01*
X146359530Y-105812273D01*
X146468546Y-105790588D01*
X146481720Y-105781786D01*
X146607474Y-105806800D01*
X146646143Y-105806800D01*
X147164602Y-106325260D01*
X147188690Y-106361310D01*
X147224740Y-106385398D01*
X147224741Y-106385399D01*
X147304183Y-106438480D01*
X147331520Y-106456746D01*
X147457474Y-106481800D01*
X147457477Y-106481800D01*
X147499999Y-106490258D01*
X147542521Y-106481800D01*
X148044008Y-106481800D01*
X148090984Y-106513188D01*
X148200000Y-106534873D01*
X149100000Y-106534873D01*
X149209016Y-106513188D01*
X149301436Y-106451436D01*
X149363188Y-106359016D01*
X149384873Y-106250000D01*
X149384873Y-105850000D01*
X149363188Y-105740984D01*
X149302395Y-105650000D01*
X149363188Y-105559016D01*
X149384873Y-105450000D01*
X149384873Y-105050000D01*
X149363188Y-104940984D01*
X149302395Y-104850000D01*
X149363188Y-104759016D01*
X149384873Y-104650000D01*
X149384873Y-104250000D01*
X149363188Y-104140984D01*
X149302395Y-104050000D01*
X149363188Y-103959016D01*
X149384873Y-103850000D01*
X149384873Y-103450000D01*
X149615127Y-103450000D01*
X149615127Y-103850000D01*
X149636812Y-103959016D01*
X149697605Y-104050000D01*
X149636812Y-104140984D01*
X149615127Y-104250000D01*
X149615127Y-104650000D01*
X149636812Y-104759016D01*
X149697605Y-104850000D01*
X149636812Y-104940984D01*
X149615127Y-105050000D01*
X149615127Y-105450000D01*
X149636812Y-105559016D01*
X149697605Y-105650000D01*
X149636812Y-105740984D01*
X149615127Y-105850000D01*
X149615127Y-106250000D01*
X149636812Y-106359016D01*
X149698564Y-106451436D01*
X149790984Y-106513188D01*
X149900000Y-106534873D01*
X150800000Y-106534873D01*
X150909016Y-106513188D01*
X150955992Y-106481800D01*
X151071143Y-106481800D01*
X155864602Y-111275260D01*
X155888690Y-111311310D01*
X155924740Y-111335398D01*
X155924741Y-111335399D01*
X156022073Y-111400434D01*
X156031520Y-111406746D01*
X156157474Y-111431800D01*
X156157477Y-111431800D01*
X156199999Y-111440258D01*
X156242521Y-111431800D01*
X157318127Y-111431800D01*
X157318127Y-111698500D01*
X157339812Y-111807516D01*
X157401564Y-111899936D01*
X157493984Y-111961688D01*
X157603000Y-111983373D01*
X158492000Y-111983373D01*
X158601016Y-111961688D01*
X158693436Y-111899936D01*
X158755188Y-111807516D01*
X158776873Y-111698500D01*
X158776873Y-111209550D01*
X159177800Y-111209550D01*
X159177800Y-111764181D01*
X159228070Y-111885543D01*
X159320957Y-111978430D01*
X159442319Y-112028700D01*
X159742950Y-112028700D01*
X159825500Y-111946150D01*
X159825500Y-111127000D01*
X160079500Y-111127000D01*
X160079500Y-111946150D01*
X160162050Y-112028700D01*
X160462681Y-112028700D01*
X160584043Y-111978430D01*
X160676930Y-111885543D01*
X160727200Y-111764181D01*
X160727200Y-111209550D01*
X160644650Y-111127000D01*
X160079500Y-111127000D01*
X159825500Y-111127000D01*
X159260350Y-111127000D01*
X159177800Y-111209550D01*
X158776873Y-111209550D01*
X158776873Y-110301500D01*
X158763809Y-110235819D01*
X159177800Y-110235819D01*
X159177800Y-110790450D01*
X159260350Y-110873000D01*
X159825500Y-110873000D01*
X159825500Y-110053850D01*
X160079500Y-110053850D01*
X160079500Y-110873000D01*
X160644650Y-110873000D01*
X160727200Y-110790450D01*
X160727200Y-110235819D01*
X160676930Y-110114457D01*
X160584043Y-110021570D01*
X160462681Y-109971300D01*
X160162050Y-109971300D01*
X160079500Y-110053850D01*
X159825500Y-110053850D01*
X159742950Y-109971300D01*
X159442319Y-109971300D01*
X159320957Y-110021570D01*
X159228070Y-110114457D01*
X159177800Y-110235819D01*
X158763809Y-110235819D01*
X158755188Y-110192484D01*
X158693436Y-110100064D01*
X158601016Y-110038312D01*
X158492000Y-110016627D01*
X157603000Y-110016627D01*
X157493984Y-110038312D01*
X157401564Y-110100064D01*
X157339812Y-110192484D01*
X157318127Y-110301500D01*
X157318127Y-110568200D01*
X156378858Y-110568200D01*
X155250764Y-109440106D01*
X155292522Y-109431800D01*
X161121143Y-109431800D01*
X162318127Y-110628784D01*
X162318127Y-111698500D01*
X162339812Y-111807516D01*
X162401564Y-111899936D01*
X162493984Y-111961688D01*
X162603000Y-111983373D01*
X163492000Y-111983373D01*
X163601016Y-111961688D01*
X163693436Y-111899936D01*
X163755188Y-111807516D01*
X163776873Y-111698500D01*
X163776873Y-111209550D01*
X164177800Y-111209550D01*
X164177800Y-111764181D01*
X164228070Y-111885543D01*
X164320957Y-111978430D01*
X164442319Y-112028700D01*
X164742950Y-112028700D01*
X164825500Y-111946150D01*
X164825500Y-111127000D01*
X165079500Y-111127000D01*
X165079500Y-111946150D01*
X165162050Y-112028700D01*
X165462681Y-112028700D01*
X165584043Y-111978430D01*
X165676930Y-111885543D01*
X165727200Y-111764181D01*
X165727200Y-111209550D01*
X165644650Y-111127000D01*
X165079500Y-111127000D01*
X164825500Y-111127000D01*
X164260350Y-111127000D01*
X164177800Y-111209550D01*
X163776873Y-111209550D01*
X163776873Y-110301500D01*
X163763809Y-110235819D01*
X164177800Y-110235819D01*
X164177800Y-110790450D01*
X164260350Y-110873000D01*
X164825500Y-110873000D01*
X164825500Y-110053850D01*
X165079500Y-110053850D01*
X165079500Y-110873000D01*
X165644650Y-110873000D01*
X165727200Y-110790450D01*
X165727200Y-110235819D01*
X165676930Y-110114457D01*
X165584043Y-110021570D01*
X165462681Y-109971300D01*
X165162050Y-109971300D01*
X165079500Y-110053850D01*
X164825500Y-110053850D01*
X164742950Y-109971300D01*
X164442319Y-109971300D01*
X164320957Y-110021570D01*
X164228070Y-110114457D01*
X164177800Y-110235819D01*
X163763809Y-110235819D01*
X163755188Y-110192484D01*
X163693436Y-110100064D01*
X163601016Y-110038312D01*
X163492000Y-110016627D01*
X162927284Y-110016627D01*
X161635400Y-108724743D01*
X161611310Y-108688690D01*
X161468480Y-108593254D01*
X161342526Y-108568200D01*
X161342522Y-108568200D01*
X161300000Y-108559742D01*
X161257478Y-108568200D01*
X155428858Y-108568200D01*
X154300765Y-107440107D01*
X154342526Y-107431800D01*
X157318127Y-107431800D01*
X157318127Y-107698500D01*
X157339812Y-107807516D01*
X157401564Y-107899936D01*
X157493984Y-107961688D01*
X157603000Y-107983373D01*
X158492000Y-107983373D01*
X158601016Y-107961688D01*
X158693436Y-107899936D01*
X158755188Y-107807516D01*
X158776873Y-107698500D01*
X158776873Y-107209550D01*
X159177800Y-107209550D01*
X159177800Y-107764181D01*
X159228070Y-107885543D01*
X159320957Y-107978430D01*
X159442319Y-108028700D01*
X159742950Y-108028700D01*
X159825500Y-107946150D01*
X159825500Y-107127000D01*
X160079500Y-107127000D01*
X160079500Y-107946150D01*
X160162050Y-108028700D01*
X160462681Y-108028700D01*
X160584043Y-107978430D01*
X160676930Y-107885543D01*
X160727200Y-107764181D01*
X160727200Y-107209550D01*
X160644650Y-107127000D01*
X160079500Y-107127000D01*
X159825500Y-107127000D01*
X159260350Y-107127000D01*
X159177800Y-107209550D01*
X158776873Y-107209550D01*
X158776873Y-106301500D01*
X158763809Y-106235819D01*
X159177800Y-106235819D01*
X159177800Y-106790450D01*
X159260350Y-106873000D01*
X159825500Y-106873000D01*
X159825500Y-106053850D01*
X160079500Y-106053850D01*
X160079500Y-106873000D01*
X160644650Y-106873000D01*
X160727200Y-106790450D01*
X160727200Y-106235819D01*
X160676930Y-106114457D01*
X160584043Y-106021570D01*
X160462681Y-105971300D01*
X160162050Y-105971300D01*
X160079500Y-106053850D01*
X159825500Y-106053850D01*
X159742950Y-105971300D01*
X159442319Y-105971300D01*
X159320957Y-106021570D01*
X159228070Y-106114457D01*
X159177800Y-106235819D01*
X158763809Y-106235819D01*
X158755188Y-106192484D01*
X158693436Y-106100064D01*
X158601016Y-106038312D01*
X158492000Y-106016627D01*
X157603000Y-106016627D01*
X157493984Y-106038312D01*
X157401564Y-106100064D01*
X157339812Y-106192484D01*
X157318127Y-106301500D01*
X157318127Y-106568200D01*
X154478857Y-106568200D01*
X153350763Y-105440106D01*
X153392520Y-105431800D01*
X161121143Y-105431800D01*
X162318127Y-106628784D01*
X162318127Y-107698500D01*
X162339812Y-107807516D01*
X162401564Y-107899936D01*
X162493984Y-107961688D01*
X162603000Y-107983373D01*
X163492000Y-107983373D01*
X163601016Y-107961688D01*
X163693436Y-107899936D01*
X163755188Y-107807516D01*
X163776873Y-107698500D01*
X163776873Y-107209550D01*
X164177800Y-107209550D01*
X164177800Y-107764181D01*
X164228070Y-107885543D01*
X164320957Y-107978430D01*
X164442319Y-108028700D01*
X164742950Y-108028700D01*
X164825500Y-107946150D01*
X164825500Y-107127000D01*
X165079500Y-107127000D01*
X165079500Y-107946150D01*
X165162050Y-108028700D01*
X165462681Y-108028700D01*
X165584043Y-107978430D01*
X165676930Y-107885543D01*
X165727200Y-107764181D01*
X165727200Y-107209550D01*
X165644650Y-107127000D01*
X165079500Y-107127000D01*
X164825500Y-107127000D01*
X164260350Y-107127000D01*
X164177800Y-107209550D01*
X163776873Y-107209550D01*
X163776873Y-106301500D01*
X163763809Y-106235819D01*
X164177800Y-106235819D01*
X164177800Y-106790450D01*
X164260350Y-106873000D01*
X164825500Y-106873000D01*
X164825500Y-106053850D01*
X165079500Y-106053850D01*
X165079500Y-106873000D01*
X165644650Y-106873000D01*
X165727200Y-106790450D01*
X165727200Y-106235819D01*
X165676930Y-106114457D01*
X165584043Y-106021570D01*
X165462681Y-105971300D01*
X165162050Y-105971300D01*
X165079500Y-106053850D01*
X164825500Y-106053850D01*
X164742950Y-105971300D01*
X164442319Y-105971300D01*
X164320957Y-106021570D01*
X164228070Y-106114457D01*
X164177800Y-106235819D01*
X163763809Y-106235819D01*
X163755188Y-106192484D01*
X163693436Y-106100064D01*
X163601016Y-106038312D01*
X163492000Y-106016627D01*
X162927284Y-106016627D01*
X161635399Y-104724742D01*
X161611310Y-104688690D01*
X161468480Y-104593254D01*
X161342526Y-104568200D01*
X161342522Y-104568200D01*
X161300000Y-104559742D01*
X161257478Y-104568200D01*
X153528857Y-104568200D01*
X152335399Y-103374742D01*
X152311310Y-103338690D01*
X152168480Y-103243254D01*
X152042526Y-103218200D01*
X152042522Y-103218200D01*
X152000000Y-103209742D01*
X151957478Y-103218200D01*
X150955992Y-103218200D01*
X150909016Y-103186812D01*
X150800000Y-103165127D01*
X149900000Y-103165127D01*
X149790984Y-103186812D01*
X149698564Y-103248564D01*
X149636812Y-103340984D01*
X149615127Y-103450000D01*
X149384873Y-103450000D01*
X149363188Y-103340984D01*
X149301436Y-103248564D01*
X149209016Y-103186812D01*
X149100000Y-103165127D01*
X148200000Y-103165127D01*
X148090984Y-103186812D01*
X148044008Y-103218200D01*
X147648857Y-103218200D01*
X147580400Y-103149743D01*
X147556310Y-103113690D01*
X147535821Y-103100000D01*
X147556310Y-103086310D01*
X147580400Y-103050257D01*
X147648857Y-102981800D01*
X148044008Y-102981800D01*
X148090984Y-103013188D01*
X148200000Y-103034873D01*
X149100000Y-103034873D01*
X149209016Y-103013188D01*
X149301436Y-102951436D01*
X149363188Y-102859016D01*
X149384873Y-102750000D01*
X149384873Y-102350000D01*
X149363188Y-102240984D01*
X149302395Y-102150000D01*
X149363188Y-102059016D01*
X149384873Y-101950000D01*
X149384873Y-101550000D01*
X149363188Y-101440984D01*
X149302395Y-101350000D01*
X149363188Y-101259016D01*
X149384873Y-101150000D01*
X149384873Y-100750000D01*
X149363188Y-100640984D01*
X149302395Y-100550000D01*
X149363188Y-100459016D01*
X149384873Y-100350000D01*
X149384873Y-99950000D01*
X149615127Y-99950000D01*
X149615127Y-100350000D01*
X149636812Y-100459016D01*
X149697605Y-100550000D01*
X149636812Y-100640984D01*
X149615127Y-100750000D01*
X149615127Y-101150000D01*
X149636812Y-101259016D01*
X149697605Y-101350000D01*
X149636812Y-101440984D01*
X149615127Y-101550000D01*
X149615127Y-101950000D01*
X149636812Y-102059016D01*
X149697605Y-102150000D01*
X149636812Y-102240984D01*
X149615127Y-102350000D01*
X149615127Y-102750000D01*
X149636812Y-102859016D01*
X149698564Y-102951436D01*
X149790984Y-103013188D01*
X149900000Y-103034873D01*
X150800000Y-103034873D01*
X150909016Y-103013188D01*
X150955992Y-102981800D01*
X152071143Y-102981800D01*
X152364602Y-103275260D01*
X152388690Y-103311310D01*
X152424740Y-103335398D01*
X152424741Y-103335399D01*
X152513344Y-103394601D01*
X152531520Y-103406746D01*
X152657474Y-103431800D01*
X152657477Y-103431800D01*
X152699999Y-103440258D01*
X152742521Y-103431800D01*
X157318127Y-103431800D01*
X157318127Y-103698500D01*
X157339812Y-103807516D01*
X157401564Y-103899936D01*
X157493984Y-103961688D01*
X157603000Y-103983373D01*
X158492000Y-103983373D01*
X158601016Y-103961688D01*
X158693436Y-103899936D01*
X158755188Y-103807516D01*
X158776873Y-103698500D01*
X158776873Y-103209550D01*
X159177800Y-103209550D01*
X159177800Y-103764181D01*
X159228070Y-103885543D01*
X159320957Y-103978430D01*
X159442319Y-104028700D01*
X159742950Y-104028700D01*
X159825500Y-103946150D01*
X159825500Y-103127000D01*
X160079500Y-103127000D01*
X160079500Y-103946150D01*
X160162050Y-104028700D01*
X160462681Y-104028700D01*
X160584043Y-103978430D01*
X160676930Y-103885543D01*
X160727200Y-103764181D01*
X160727200Y-103209550D01*
X160644650Y-103127000D01*
X160079500Y-103127000D01*
X159825500Y-103127000D01*
X159260350Y-103127000D01*
X159177800Y-103209550D01*
X158776873Y-103209550D01*
X158776873Y-102301500D01*
X158763809Y-102235819D01*
X159177800Y-102235819D01*
X159177800Y-102790450D01*
X159260350Y-102873000D01*
X159825500Y-102873000D01*
X159825500Y-102053850D01*
X160079500Y-102053850D01*
X160079500Y-102873000D01*
X160644650Y-102873000D01*
X160727200Y-102790450D01*
X160727200Y-102235819D01*
X160676930Y-102114457D01*
X160584043Y-102021570D01*
X160462681Y-101971300D01*
X160162050Y-101971300D01*
X160079500Y-102053850D01*
X159825500Y-102053850D01*
X159742950Y-101971300D01*
X159442319Y-101971300D01*
X159320957Y-102021570D01*
X159228070Y-102114457D01*
X159177800Y-102235819D01*
X158763809Y-102235819D01*
X158755188Y-102192484D01*
X158693436Y-102100064D01*
X158601016Y-102038312D01*
X158492000Y-102016627D01*
X157603000Y-102016627D01*
X157493984Y-102038312D01*
X157401564Y-102100064D01*
X157339812Y-102192484D01*
X157318127Y-102301500D01*
X157318127Y-102568200D01*
X152878858Y-102568200D01*
X152585399Y-102274742D01*
X152561310Y-102238690D01*
X152428576Y-102150000D01*
X152561310Y-102061310D01*
X152585399Y-102025258D01*
X153178858Y-101431800D01*
X161121143Y-101431800D01*
X162318127Y-102628784D01*
X162318127Y-103698500D01*
X162339812Y-103807516D01*
X162401564Y-103899936D01*
X162493984Y-103961688D01*
X162603000Y-103983373D01*
X163492000Y-103983373D01*
X163601016Y-103961688D01*
X163693436Y-103899936D01*
X163755188Y-103807516D01*
X163776873Y-103698500D01*
X163776873Y-103209550D01*
X164177800Y-103209550D01*
X164177800Y-103764181D01*
X164228070Y-103885543D01*
X164320957Y-103978430D01*
X164442319Y-104028700D01*
X164742950Y-104028700D01*
X164825500Y-103946150D01*
X164825500Y-103127000D01*
X165079500Y-103127000D01*
X165079500Y-103946150D01*
X165162050Y-104028700D01*
X165462681Y-104028700D01*
X165584043Y-103978430D01*
X165676930Y-103885543D01*
X165727200Y-103764181D01*
X165727200Y-103209550D01*
X165644650Y-103127000D01*
X165079500Y-103127000D01*
X164825500Y-103127000D01*
X164260350Y-103127000D01*
X164177800Y-103209550D01*
X163776873Y-103209550D01*
X163776873Y-102301500D01*
X163763809Y-102235819D01*
X164177800Y-102235819D01*
X164177800Y-102790450D01*
X164260350Y-102873000D01*
X164825500Y-102873000D01*
X164825500Y-102053850D01*
X165079500Y-102053850D01*
X165079500Y-102873000D01*
X165644650Y-102873000D01*
X165727200Y-102790450D01*
X165727200Y-102235819D01*
X165676930Y-102114457D01*
X165584043Y-102021570D01*
X165462681Y-101971300D01*
X165162050Y-101971300D01*
X165079500Y-102053850D01*
X164825500Y-102053850D01*
X164742950Y-101971300D01*
X164442319Y-101971300D01*
X164320957Y-102021570D01*
X164228070Y-102114457D01*
X164177800Y-102235819D01*
X163763809Y-102235819D01*
X163755188Y-102192484D01*
X163693436Y-102100064D01*
X163601016Y-102038312D01*
X163492000Y-102016627D01*
X162927284Y-102016627D01*
X161635400Y-100724743D01*
X161611310Y-100688690D01*
X161468480Y-100593254D01*
X161342526Y-100568200D01*
X161342522Y-100568200D01*
X161300000Y-100559742D01*
X161257478Y-100568200D01*
X153042521Y-100568200D01*
X153000763Y-100559894D01*
X154128857Y-99431800D01*
X157318127Y-99431800D01*
X157318127Y-99698500D01*
X157339812Y-99807516D01*
X157401564Y-99899936D01*
X157493984Y-99961688D01*
X157603000Y-99983373D01*
X158492000Y-99983373D01*
X158601016Y-99961688D01*
X158693436Y-99899936D01*
X158755188Y-99807516D01*
X158776873Y-99698500D01*
X158776873Y-99209550D01*
X159177800Y-99209550D01*
X159177800Y-99764181D01*
X159228070Y-99885543D01*
X159320957Y-99978430D01*
X159442319Y-100028700D01*
X159742950Y-100028700D01*
X159825500Y-99946150D01*
X159825500Y-99127000D01*
X160079500Y-99127000D01*
X160079500Y-99946150D01*
X160162050Y-100028700D01*
X160462681Y-100028700D01*
X160584043Y-99978430D01*
X160676930Y-99885543D01*
X160727200Y-99764181D01*
X160727200Y-99209550D01*
X160644650Y-99127000D01*
X160079500Y-99127000D01*
X159825500Y-99127000D01*
X159260350Y-99127000D01*
X159177800Y-99209550D01*
X158776873Y-99209550D01*
X158776873Y-98301500D01*
X158755188Y-98192484D01*
X158748049Y-98181800D01*
X159200175Y-98181800D01*
X159177800Y-98235819D01*
X159177800Y-98790450D01*
X159260350Y-98873000D01*
X159825500Y-98873000D01*
X159825500Y-98853000D01*
X160079500Y-98853000D01*
X160079500Y-98873000D01*
X160644650Y-98873000D01*
X160727200Y-98790450D01*
X160727200Y-98235819D01*
X160704825Y-98181800D01*
X161871143Y-98181800D01*
X162318127Y-98628785D01*
X162318127Y-99698500D01*
X162339812Y-99807516D01*
X162401564Y-99899936D01*
X162493984Y-99961688D01*
X162603000Y-99983373D01*
X163492000Y-99983373D01*
X163601016Y-99961688D01*
X163693436Y-99899936D01*
X163755188Y-99807516D01*
X163776873Y-99698500D01*
X163776873Y-99209550D01*
X164177800Y-99209550D01*
X164177800Y-99764181D01*
X164228070Y-99885543D01*
X164320957Y-99978430D01*
X164442319Y-100028700D01*
X164742950Y-100028700D01*
X164825500Y-99946150D01*
X164825500Y-99127000D01*
X165079500Y-99127000D01*
X165079500Y-99946150D01*
X165162050Y-100028700D01*
X165462681Y-100028700D01*
X165584043Y-99978430D01*
X165676930Y-99885543D01*
X165727200Y-99764181D01*
X165727200Y-99209550D01*
X165644650Y-99127000D01*
X165079500Y-99127000D01*
X164825500Y-99127000D01*
X164260350Y-99127000D01*
X164177800Y-99209550D01*
X163776873Y-99209550D01*
X163776873Y-98301500D01*
X163763809Y-98235819D01*
X164177800Y-98235819D01*
X164177800Y-98790450D01*
X164260350Y-98873000D01*
X164825500Y-98873000D01*
X164825500Y-98053850D01*
X165079500Y-98053850D01*
X165079500Y-98873000D01*
X165644650Y-98873000D01*
X165727200Y-98790450D01*
X165727200Y-98235819D01*
X165676930Y-98114457D01*
X165584043Y-98021570D01*
X165462681Y-97971300D01*
X165162050Y-97971300D01*
X165079500Y-98053850D01*
X164825500Y-98053850D01*
X164742950Y-97971300D01*
X164442319Y-97971300D01*
X164320957Y-98021570D01*
X164228070Y-98114457D01*
X164177800Y-98235819D01*
X163763809Y-98235819D01*
X163755188Y-98192484D01*
X163693436Y-98100064D01*
X163601016Y-98038312D01*
X163492000Y-98016627D01*
X162927285Y-98016627D01*
X162385399Y-97474742D01*
X162361310Y-97438690D01*
X162218480Y-97343254D01*
X162092526Y-97318200D01*
X162092522Y-97318200D01*
X162050000Y-97309742D01*
X162007478Y-97318200D01*
X154192526Y-97318200D01*
X154150000Y-97309741D01*
X154107474Y-97318200D01*
X153981520Y-97343254D01*
X153838690Y-97438690D01*
X153814600Y-97474743D01*
X151571143Y-99718200D01*
X150955992Y-99718200D01*
X150909016Y-99686812D01*
X150800000Y-99665127D01*
X149900000Y-99665127D01*
X149790984Y-99686812D01*
X149698564Y-99748564D01*
X149636812Y-99840984D01*
X149615127Y-99950000D01*
X149384873Y-99950000D01*
X149363188Y-99840984D01*
X149301436Y-99748564D01*
X149209016Y-99686812D01*
X149100000Y-99665127D01*
X148200000Y-99665127D01*
X148090984Y-99686812D01*
X148044008Y-99718200D01*
X147542521Y-99718200D01*
X147499999Y-99709742D01*
X147457477Y-99718200D01*
X147457474Y-99718200D01*
X147401279Y-99729378D01*
X147525256Y-99605401D01*
X147561310Y-99581310D01*
X147656746Y-99438480D01*
X147681800Y-99312526D01*
X147681800Y-99312522D01*
X147690258Y-99270001D01*
X147681800Y-99227480D01*
X147681800Y-98542520D01*
X147690258Y-98499999D01*
X147681800Y-98457478D01*
X147681800Y-98457474D01*
X147656746Y-98331520D01*
X147561310Y-98188690D01*
X147525255Y-98164599D01*
X147335400Y-97974743D01*
X147311310Y-97938690D01*
X147168480Y-97843254D01*
X147042526Y-97818200D01*
X147042522Y-97818200D01*
X147000000Y-97809742D01*
X146957478Y-97818200D01*
X146323139Y-97818200D01*
X146272936Y-97743064D01*
X146180516Y-97681312D01*
X146071500Y-97659627D01*
X144928500Y-97659627D01*
X144819484Y-97681312D01*
X144727064Y-97743064D01*
X144702785Y-97779400D01*
X143865527Y-97779400D01*
X143817999Y-97769946D01*
X143770471Y-97779400D01*
X143629699Y-97807401D01*
X143470065Y-97914065D01*
X143443140Y-97954361D01*
X142192362Y-99205140D01*
X142152066Y-99232065D01*
X142059005Y-99371341D01*
X142045402Y-99391699D01*
X142007946Y-99580000D01*
X142017401Y-99627533D01*
X142017400Y-107820100D01*
X139267602Y-110569900D01*
X139225794Y-110569900D01*
X139211688Y-110498984D01*
X139149936Y-110406564D01*
X139057516Y-110344812D01*
X138948500Y-110323127D01*
X137551500Y-110323127D01*
X137442484Y-110344812D01*
X137350064Y-110406564D01*
X137288312Y-110498984D01*
X137266627Y-110608000D01*
X137266627Y-110790606D01*
X137232472Y-110797400D01*
X137232471Y-110797400D01*
X137148701Y-110814063D01*
X137082235Y-110653601D01*
X136736399Y-110307765D01*
X136284543Y-110120600D01*
X135795457Y-110120600D01*
X135343601Y-110307765D01*
X134997765Y-110653601D01*
X134909206Y-110867400D01*
X134630794Y-110867400D01*
X134542235Y-110653601D01*
X134196399Y-110307765D01*
X133744543Y-110120600D01*
X133255457Y-110120600D01*
X132803601Y-110307765D01*
X132457765Y-110653601D01*
X132270600Y-111105457D01*
X129804400Y-111105457D01*
X129804400Y-109759728D01*
X132729877Y-109759728D01*
X132839161Y-109935633D01*
X133320225Y-110102842D01*
X133828659Y-110073226D01*
X134160839Y-109935633D01*
X134270123Y-109759728D01*
X135269877Y-109759728D01*
X135379161Y-109935633D01*
X135860225Y-110102842D01*
X136368659Y-110073226D01*
X136700839Y-109935633D01*
X136810123Y-109759728D01*
X136040000Y-108989605D01*
X135269877Y-109759728D01*
X134270123Y-109759728D01*
X133500000Y-108989605D01*
X132729877Y-109759728D01*
X129804400Y-109759728D01*
X129804400Y-108630225D01*
X132207158Y-108630225D01*
X132236774Y-109138659D01*
X132374367Y-109470839D01*
X132550272Y-109580123D01*
X133320395Y-108810000D01*
X132550272Y-108039877D01*
X132374367Y-108149161D01*
X132207158Y-108630225D01*
X129804400Y-108630225D01*
X129804400Y-107860272D01*
X132729877Y-107860272D01*
X133500000Y-108630395D01*
X134270123Y-107860272D01*
X134160839Y-107684367D01*
X133679775Y-107517158D01*
X133171341Y-107546774D01*
X132839161Y-107684367D01*
X132729877Y-107860272D01*
X129804400Y-107860272D01*
X129804400Y-98405457D01*
X132270600Y-98405457D01*
X132270600Y-98894543D01*
X132457765Y-99346399D01*
X132803601Y-99692235D01*
X133255457Y-99879400D01*
X133744543Y-99879400D01*
X134009142Y-99769799D01*
X134434600Y-100195257D01*
X134458690Y-100231310D01*
X134601520Y-100326746D01*
X134727474Y-100351800D01*
X134727477Y-100351800D01*
X134769999Y-100360258D01*
X134812521Y-100351800D01*
X135139566Y-100351800D01*
X134997765Y-100493601D01*
X134810600Y-100945457D01*
X134810600Y-101434543D01*
X134997765Y-101886399D01*
X135139566Y-102028200D01*
X134948857Y-102028200D01*
X134619799Y-101699142D01*
X134729400Y-101434543D01*
X134729400Y-100945457D01*
X134542235Y-100493601D01*
X134196399Y-100147765D01*
X133744543Y-99960600D01*
X133255457Y-99960600D01*
X132803601Y-100147765D01*
X132457765Y-100493601D01*
X132270600Y-100945457D01*
X132270600Y-101434543D01*
X132457765Y-101886399D01*
X132803601Y-102232235D01*
X133255457Y-102419400D01*
X133744543Y-102419400D01*
X134009142Y-102309799D01*
X134434600Y-102735257D01*
X134458690Y-102771310D01*
X134601520Y-102866746D01*
X134727474Y-102891800D01*
X134727477Y-102891800D01*
X134769999Y-102900258D01*
X134812521Y-102891800D01*
X135139566Y-102891800D01*
X134997765Y-103033601D01*
X134810600Y-103485457D01*
X134810600Y-103974543D01*
X134997765Y-104426399D01*
X135139566Y-104568200D01*
X134948857Y-104568200D01*
X134619799Y-104239142D01*
X134729400Y-103974543D01*
X134729400Y-103485457D01*
X134542235Y-103033601D01*
X134196399Y-102687765D01*
X133744543Y-102500600D01*
X133255457Y-102500600D01*
X132803601Y-102687765D01*
X132457765Y-103033601D01*
X132270600Y-103485457D01*
X132270600Y-103974543D01*
X132457765Y-104426399D01*
X132803601Y-104772235D01*
X133255457Y-104959400D01*
X133744543Y-104959400D01*
X134009142Y-104849799D01*
X134434600Y-105275257D01*
X134458690Y-105311310D01*
X134601520Y-105406746D01*
X134727474Y-105431800D01*
X134727477Y-105431800D01*
X134769999Y-105440258D01*
X134812521Y-105431800D01*
X135139566Y-105431800D01*
X134997765Y-105573601D01*
X134810600Y-106025457D01*
X134810600Y-106514543D01*
X134997765Y-106966399D01*
X135139566Y-107108200D01*
X134948857Y-107108200D01*
X134619799Y-106779142D01*
X134729400Y-106514543D01*
X134729400Y-106025457D01*
X134542235Y-105573601D01*
X134196399Y-105227765D01*
X133744543Y-105040600D01*
X133255457Y-105040600D01*
X132803601Y-105227765D01*
X132457765Y-105573601D01*
X132270600Y-106025457D01*
X132270600Y-106514543D01*
X132457765Y-106966399D01*
X132803601Y-107312235D01*
X133255457Y-107499400D01*
X133744543Y-107499400D01*
X134009142Y-107389799D01*
X134434600Y-107815257D01*
X134458690Y-107851310D01*
X134601520Y-107946746D01*
X134727474Y-107971800D01*
X134727477Y-107971800D01*
X134769999Y-107980258D01*
X134812521Y-107971800D01*
X135035772Y-107971800D01*
X135028982Y-107978590D01*
X135090270Y-108039878D01*
X134914367Y-108149161D01*
X134768347Y-108569263D01*
X134763226Y-108481341D01*
X134625633Y-108149161D01*
X134449728Y-108039877D01*
X133679605Y-108810000D01*
X134449728Y-109580123D01*
X134625633Y-109470839D01*
X134771653Y-109050737D01*
X134776774Y-109138659D01*
X134914367Y-109470839D01*
X135090272Y-109580123D01*
X135860395Y-108810000D01*
X135846253Y-108795858D01*
X136025858Y-108616253D01*
X136040000Y-108630395D01*
X136054143Y-108616253D01*
X136233748Y-108795858D01*
X136219605Y-108810000D01*
X136989728Y-109580123D01*
X137165633Y-109470839D01*
X137233876Y-109274502D01*
X137303848Y-109274502D01*
X137221300Y-109357050D01*
X137221300Y-109657681D01*
X137271570Y-109779043D01*
X137364457Y-109871930D01*
X137485819Y-109922200D01*
X138040450Y-109922200D01*
X138123000Y-109839650D01*
X138123000Y-109274500D01*
X138377000Y-109274500D01*
X138377000Y-109839650D01*
X138459550Y-109922200D01*
X139014181Y-109922200D01*
X139135543Y-109871930D01*
X139228430Y-109779043D01*
X139278700Y-109657681D01*
X139278700Y-109357050D01*
X139196150Y-109274500D01*
X138377000Y-109274500D01*
X138123000Y-109274500D01*
X138103000Y-109274500D01*
X138103000Y-109020500D01*
X138123000Y-109020500D01*
X138123000Y-108455350D01*
X138377000Y-108455350D01*
X138377000Y-109020500D01*
X139196150Y-109020500D01*
X139278700Y-108937950D01*
X139278700Y-108637319D01*
X139228430Y-108515957D01*
X139135543Y-108423070D01*
X139014181Y-108372800D01*
X138459550Y-108372800D01*
X138377000Y-108455350D01*
X138123000Y-108455350D01*
X138040450Y-108372800D01*
X137485819Y-108372800D01*
X137364457Y-108423070D01*
X137303389Y-108484138D01*
X137303226Y-108481341D01*
X137165633Y-108149161D01*
X136989730Y-108039878D01*
X137051018Y-107978590D01*
X137050581Y-107978153D01*
X137082522Y-107971800D01*
X137082526Y-107971800D01*
X137208480Y-107946746D01*
X137351310Y-107851310D01*
X137375399Y-107815258D01*
X138425261Y-106765397D01*
X138461310Y-106741310D01*
X138504451Y-106676746D01*
X138556746Y-106598480D01*
X138556746Y-106598479D01*
X138581800Y-106472526D01*
X138581800Y-106472523D01*
X138590258Y-106430001D01*
X138581800Y-106387479D01*
X138581800Y-105857600D01*
X139318650Y-105857600D01*
X139401200Y-105775050D01*
X139401200Y-105451200D01*
X139655200Y-105451200D01*
X139655200Y-105775050D01*
X139737750Y-105857600D01*
X140484151Y-105857600D01*
X140605513Y-105807330D01*
X140698400Y-105714443D01*
X140748670Y-105593081D01*
X140748670Y-105533750D01*
X140666120Y-105451200D01*
X139655200Y-105451200D01*
X139401200Y-105451200D01*
X139381200Y-105451200D01*
X139381200Y-105298800D01*
X139401200Y-105298800D01*
X139401200Y-105228000D01*
X139655200Y-105228000D01*
X139655200Y-105298800D01*
X140666120Y-105298800D01*
X140748670Y-105216250D01*
X140748670Y-105156919D01*
X140698400Y-105035557D01*
X140670204Y-105007361D01*
X140684198Y-104986416D01*
X140705883Y-104877400D01*
X140705883Y-104572600D01*
X140684198Y-104463584D01*
X140641713Y-104400000D01*
X140684198Y-104336416D01*
X140705883Y-104227400D01*
X140705883Y-103922600D01*
X140684198Y-103813584D01*
X140641713Y-103750000D01*
X140684198Y-103686416D01*
X140705883Y-103577400D01*
X140705883Y-103272600D01*
X140684198Y-103163584D01*
X140641713Y-103100000D01*
X140684198Y-103036416D01*
X140705883Y-102927400D01*
X140705883Y-102622600D01*
X140684198Y-102513584D01*
X140641713Y-102450000D01*
X140684198Y-102386416D01*
X140705883Y-102277400D01*
X140705883Y-101972600D01*
X140684198Y-101863584D01*
X140641713Y-101800000D01*
X140684198Y-101736416D01*
X140705883Y-101627400D01*
X140705883Y-101322600D01*
X140684198Y-101213584D01*
X140641713Y-101150000D01*
X140684198Y-101086416D01*
X140705883Y-100977400D01*
X140705883Y-100672600D01*
X140684198Y-100563584D01*
X140641713Y-100500000D01*
X140684198Y-100436416D01*
X140705883Y-100327400D01*
X140705883Y-100022600D01*
X140684198Y-99913584D01*
X140670204Y-99892639D01*
X140698400Y-99864443D01*
X140748670Y-99743081D01*
X140748670Y-99683750D01*
X140666120Y-99601200D01*
X139655200Y-99601200D01*
X139655200Y-99672000D01*
X139401200Y-99672000D01*
X139401200Y-99601200D01*
X138390280Y-99601200D01*
X138311069Y-99680411D01*
X138121800Y-99491143D01*
X138121800Y-99306919D01*
X138307730Y-99306919D01*
X138307730Y-99366250D01*
X138390280Y-99448800D01*
X139401200Y-99448800D01*
X139401200Y-99124950D01*
X139655200Y-99124950D01*
X139655200Y-99448800D01*
X140666120Y-99448800D01*
X140748670Y-99366250D01*
X140748670Y-99306919D01*
X140698400Y-99185557D01*
X140605513Y-99092670D01*
X140484151Y-99042400D01*
X139737750Y-99042400D01*
X139655200Y-99124950D01*
X139401200Y-99124950D01*
X139318650Y-99042400D01*
X138572249Y-99042400D01*
X138450887Y-99092670D01*
X138358000Y-99185557D01*
X138307730Y-99306919D01*
X138121800Y-99306919D01*
X138121800Y-99122522D01*
X138130258Y-99080000D01*
X138121800Y-99037478D01*
X138121800Y-99037474D01*
X138096746Y-98911520D01*
X138071008Y-98873000D01*
X138025399Y-98804741D01*
X138025398Y-98804740D01*
X138001310Y-98768690D01*
X137965261Y-98744603D01*
X137595399Y-98374742D01*
X137571310Y-98338690D01*
X137428480Y-98243254D01*
X137324873Y-98222645D01*
X137324873Y-97700000D01*
X137303188Y-97590984D01*
X137241436Y-97498564D01*
X137149016Y-97436812D01*
X137040000Y-97415127D01*
X135040000Y-97415127D01*
X134930984Y-97436812D01*
X134838564Y-97498564D01*
X134776812Y-97590984D01*
X134755127Y-97700000D01*
X134755127Y-99294470D01*
X134619799Y-99159142D01*
X134729400Y-98894543D01*
X134729400Y-98405457D01*
X134542235Y-97953601D01*
X134196399Y-97607765D01*
X133744543Y-97420600D01*
X133255457Y-97420600D01*
X132803601Y-97607765D01*
X132457765Y-97953601D01*
X132270600Y-98405457D01*
X129804400Y-98405457D01*
X129804400Y-97227000D01*
X143000000Y-97227000D01*
X143048601Y-97217333D01*
X143089803Y-97189803D01*
X143117333Y-97148601D01*
X143127000Y-97100000D01*
X143127000Y-96947550D01*
X144598300Y-96947550D01*
X144598300Y-97121181D01*
X144648570Y-97242543D01*
X144741457Y-97335430D01*
X144862819Y-97385700D01*
X145290450Y-97385700D01*
X145373000Y-97303150D01*
X145373000Y-96865000D01*
X145627000Y-96865000D01*
X145627000Y-97303150D01*
X145709550Y-97385700D01*
X146137181Y-97385700D01*
X146258543Y-97335430D01*
X146351430Y-97242543D01*
X146401700Y-97121181D01*
X146401700Y-96947550D01*
X146319150Y-96865000D01*
X145627000Y-96865000D01*
X145373000Y-96865000D01*
X144680850Y-96865000D01*
X144598300Y-96947550D01*
X143127000Y-96947550D01*
X143127000Y-96354819D01*
X144598300Y-96354819D01*
X144598300Y-96528450D01*
X144680850Y-96611000D01*
X145373000Y-96611000D01*
X145373000Y-96172850D01*
X145627000Y-96172850D01*
X145627000Y-96611000D01*
X146319150Y-96611000D01*
X146401700Y-96528450D01*
X146401700Y-96354819D01*
X146351430Y-96233457D01*
X146258543Y-96140570D01*
X146137181Y-96090300D01*
X145709550Y-96090300D01*
X145627000Y-96172850D01*
X145373000Y-96172850D01*
X145290450Y-96090300D01*
X144862819Y-96090300D01*
X144741457Y-96140570D01*
X144648570Y-96233457D01*
X144598300Y-96354819D01*
X143127000Y-96354819D01*
X143127000Y-95194400D01*
X167195600Y-95194400D01*
X167195601Y-114805600D01*
G04 #@! TD*
M02*
