M48
;DRILL file {KiCad 5.0.2} date ven. 05 juin 2020 09:13:02 CEST
;FORMAT={-:-/ absolute / inch / decimal}
FMAT,2
INCH,TZ
T1C0.0120
T2C0.0433
T3C0.0469
%
G90
G05
T1
X5.128Y-4.0551
X5.128Y-4.1339
X5.128Y-4.2126
X5.4921Y-3.878
X5.5512Y-4.1484
X5.6693Y-3.9437
X5.7776Y-3.8091
X5.8858Y-3.9055
X5.8858Y-4.2126
X6.063Y-4.0945
X6.3484Y-3.8976
X6.3484Y-4.0551
X6.3484Y-4.2126
X6.3484Y-4.3701
X6.5453Y-3.8189
X6.5453Y-3.8976
X6.5453Y-3.9764
X6.5453Y-4.0551
X6.5453Y-4.1339
X6.5453Y-4.2126
X6.5453Y-4.2913
X6.5453Y-4.3701
X6.5453Y-4.4488
T2
X5.3559Y-3.8839
T3
X5.2559Y-3.8839
X5.2559Y-3.9839
X5.2559Y-4.0839
X5.2559Y-4.1839
X5.2559Y-4.2839
X5.2559Y-4.3839
X5.3559Y-3.9839
X5.3559Y-4.0839
X5.3559Y-4.1839
X5.3559Y-4.2839
X5.3559Y-4.3839
T0
M30
